<svg xmlns="http://www.w3.org/2000/svg" width="1748" height="2480" viewBox="0 0 1748 2480">
  <metadata><?xpacket begin="﻿" id="W5M0MpCehiHzreSzNTczkc9d"?>
<x:xmpmeta xmlns:x="adobe:ns:meta/" x:xmptk="Adobe XMP Core 5.6-c138 79.159824, 2016/09/14-01:09:01        ">
   <rdf:RDF xmlns:rdf="http://www.w3.org/1999/02/22-rdf-syntax-ns#">
      <rdf:Description rdf:about=""/>
   </rdf:RDF>
</x:xmpmeta>
                                                                                                    
                                                                                                    
                                                                                                    
                                                                                                    
                                                                                                    
                                                                                                    
                                                                                                    
                                                                                                    
                                                                                                    
                                                                                                    
                                                                                                    
                                                                                                    
                                                                                                    
                                                                                                    
                                                                                                    
                                                                                                    
                                                                                                    
                                                                                                    
                                                                                                    
                                                                                                    
                           
<?xpacket end="w"?></metadata>
<defs>
    <style>
      .cls-1 {
        fill-rule: evenodd;
      }
    </style>
  </defs>
  <path id="TX_Jerry_C_Graphics_and_Engine_Programmer._he_him" data-name="TX_Jerry C++ Graphics and Engine Programmer. he/him" class="cls-1" d="M350.058,730.945l-20.1,26.1h47.1v74.247h31.048V757.044h35.849l20.1-26.1H350.058Zm225.746,0-32.249,31.2-31.949-31.2H468.558l30.749,28.8c15.749,14.7,19.649,18.149,23.4,20.849-3.75,2.85-8.1,6.449-23.4,20.549l-32.7,30.149h38.549l35.248-33.149,34.2,33.149h43.8l-32.1-30.149c-16.2-15.15-20.7-19.349-24.3-21.749,3.75-2.85,8.4-6.9,22.349-19.5L616,730.945H575.8ZM721.9,837.59H620.057v13.5H721.9v-13.5Zm21.153-32.1-20.249,25.8h37.5c41.7,0,62.7-15.15,62.7-45.6V730.945H791.8v54.747c0,14.4-7.8,19.8-31.5,19.8H743.056Zm128.548,0v-13.65h61.648l17.849-22.8H871.6v-12h64.948l20.1-26.1H840.405V831.291H937l19.949-25.8H871.6Zm219.9,6.3c-6.9-7.049-10.65-10.649-14.1-13.2,16.5-3.3,26.25-16.2,26.25-31.8,0-28.649-28.8-35.848-51.6-35.848h-64.5l-20.249,26.1h87.3c10.65,0,17.1,3.9,17.1,11.7,0,6.9-7.5,11.25-17.1,11.25H967.3v51.3h31.049V804.742h47.7l22.35,26.549h41.55Zm153.45,0c-6.9-7.049-10.65-10.649-14.1-13.2,16.5-3.3,26.25-16.2,26.25-31.8,0-28.649-28.8-35.848-51.6-35.848H1141l-20.25,26.1h87.3c10.65,0,17.1,3.9,17.1,11.7,0,6.9-7.5,11.25-17.1,11.25h-87.3v51.3h31.05V804.742h47.7l22.35,26.549h41.55Zm134.25-80.846-22.8,27.749c-7.2,8.7-10.65,13.049-12.6,15.9-2.1-3-10.5-12.15-13.65-15.749l-24-27.9h-39.9l61.2,67.047v33.3h31.2V798.142l59.55-67.2h-39Zm-1025.108,136c-13.067,0-20.333,7.4-20.333,22.533,0,15.066,7.2,22.466,20.333,22.466h17.4v-7.867h-17.4c-8.734,0-12.467-4.333-12.467-14.6,0-10.333,3.8-14.667,12.467-14.667h17.4v-7.866h-17.4Zm39.466,4.533v15.6H378.091v4.866h15.467v15.4h4.933v-15.4h15.467v-4.866H398.491v-15.6h-4.933Zm41.266,0v15.6H419.357v4.866h15.467v15.4h4.933v-15.4h15.466v-4.866H439.757v-15.6h-4.933Zm65.065-4.533c-13.066,0-20.333,7.4-20.333,22.533,0,15.066,7.2,22.466,20.333,22.466h6.934c10.066,0,14-6.2,14-14.066,0-7.8-3.933-12.734-11.933-12.734h-10.8v6.867h10c3.667,0,5.533,2.133,5.533,5.733,0,3.667-1.866,6.333-6.266,6.333h-7.467c-8.733,0-12.466-4.333-12.466-14.6,0-10.333,3.8-14.667,12.466-14.667h18.533v-7.866H499.889Zm39,9.8c-6.933,0-9.533,3.2-9.533,10.266v24.933h7.066V888.082c0-3.067,1.4-4.534,4.533-4.534h12.4v-6.8H538.889Zm22.8,0v6.8h21.066c3.867,0,5.4,2.134,5.4,4.867v2.667H571.422c-8.667,0-11.867,3.733-11.867,10.133,0,6.666,3.467,10.733,11.8,10.733h16.467c5.933,0,7.266-2,7.266-7.067V888.348c0-6.666-3.466-11.6-12.266-11.6H561.689Zm24.533,28.332h-14.8c-3.533,0-4.933-1.666-4.933-4.266s1.333-4.133,5.066-4.133h16.6v6.6C588.155,904.548,587.622,905.081,586.222,905.081Zm31.666-28.332c-8.466,0-12.933,4.933-12.933,15.066v34.266h7.067V911.948h15.6c9.333,0,15.2-5.733,15.2-17.6s-5.866-17.6-15.2-17.6h-9.734Zm-5.866,15.4c0-6.066,2.2-8.6,7.933-8.6h6.933c6.133,0,8.8,3.2,8.8,10.8s-2.667,10.733-8.8,10.733H612.022V892.148Zm39.266-30.666v50.466h7.067v-28.4h12.4c7.334,0,10.6,3.2,10.6,8.6v19.8h7.134v-19.8c0-9.666-5.867-15.4-17.734-15.4h-12.4V861.482h-7.067Zm47.132,15.267v35.2h7.067v-35.2H698.42Zm0-13.267v8.2h7.134v-8.2H698.42Zm30.8,13.267c-9.4,0-15.266,5.733-15.266,17.6s5.866,17.6,15.266,17.6h18.133v-6.867H729.887c-6.134,0-8.8-3.133-8.8-10.733s2.666-10.8,8.8-10.8h17.466v-6.8H729.22Zm36.333,0c-8.2,0-11.467,3.933-11.467,10.266,0,5.4,2.4,10.267,12.133,10.267h8.334c3.533,0,5,1.133,5,3.933,0,2.733-1.333,3.866-4.6,3.866H754.486v6.867h20.467c8.266,0,11.533-4.4,11.533-10.666,0-5.467-2.467-9.934-12.2-9.934h-8.267c-3.933,0-5-1.333-5-3.8,0-2.666,1.334-4,4.6-4h19.467v-6.8H765.553Zm48.466,0v6.8h21.067c3.866,0,5.4,2.134,5.4,4.867v2.667H823.752c-8.666,0-11.866,3.733-11.866,10.133,0,6.666,3.467,10.733,11.8,10.733h16.466c5.933,0,7.267-2,7.267-7.067V888.348c0-6.666-3.467-11.6-12.267-11.6H814.019Zm24.533,28.332h-14.8c-3.533,0-4.933-1.666-4.933-4.266s1.333-4.133,5.067-4.133h16.6v6.6C840.486,904.548,839.952,905.081,838.552,905.081Zm23.8-28.332c-3.533,0-4.933,1.333-4.933,5.466v29.733h7.067v-27.4a0.821,0.821,0,0,1,.866-1h11.533c7.4,0,10.6,3.067,10.6,8.6v19.8h7.133v-19.8c0-9.733-5.8-15.4-17.733-15.4H862.352Zm71.332-15.267v15.267H918.151c-9.4,0-15.266,5.733-15.266,17.6s5.866,17.6,15.266,17.6h9.733c8.4,0,12.934-4.933,12.934-15.066v-35.4h-7.134Zm-7.866,43.6h-7c-6.067,0-8.8-3.133-8.8-10.733s2.733-10.8,8.8-10.8h14.866v13C933.684,902.548,931.484,905.081,925.818,905.081Zm56.666-38.132c-10.6,0-15.067,5.066-15.067,12.266,0,4.933,2.134,8.4,6.334,10.133-4.134,1.734-6.467,5.2-6.467,10.334,0,7,4.333,12.266,15,12.266h22.8v-7.867h-22.8c-4.6,0-6.8-2.133-6.8-5.666,0-3.667,2.333-5.467,6.867-5.467h22.329v-7.133H982.551c-4.534,0-6.867-1.667-6.867-5.333,0-3.467,2.067-5.667,6.8-5.667h22.536v-7.866H982.484Zm37.336,9.8c-3.54,0-4.94,1.333-4.94,5.466v29.733h7.07v-27.4a0.824,0.824,0,0,1,.87-1h11.53c7.4,0,10.6,3.067,10.6,8.6v19.8h7.13v-19.8c0-9.733-5.8-15.4-17.73-15.4h-14.53Zm55.8,0c-9.4,0-15.27,5.466-15.27,16.8,0,11.4,5.87,16.933,15.27,16.933h15.53v1.6c0,5.067-1.73,7.134-7,7.134h-20.13v6.8h20.93c9.87,0,13.33-3.933,13.33-13.933V891.815c0-10.133-4.53-15.066-12.93-15.066h-9.73Zm-8.14,17.066c0-7.2,2.74-10.267,8.8-10.267h7c5.67,0,7.87,2.467,7.87,8.2v12.333h-14.87C1070.22,904.081,1067.48,901.015,1067.48,893.815Zm40.67-17.066v35.2h7.07v-35.2h-7.07Zm0-13.267v8.2h7.13v-8.2h-7.13Zm22.13,13.267c-3.53,0-4.93,1.333-4.93,5.466v29.733h7.06v-27.4a0.824,0.824,0,0,1,.87-1h11.53c7.4,0,10.6,3.067,10.6,8.6v19.8h7.14v-19.8c0-9.733-5.8-15.4-17.74-15.4h-14.53Zm53.73,0c-8.8,0-12.26,4.933-12.26,11.6v12c0,6.667,3.46,11.6,12.26,11.6h21.54v-6.867h-21.54c-3.86,0-5.4-2.066-5.4-4.866v-2.533h16.74c8.66,0,11.93-3.667,11.93-10.134,0-6.8-3.53-10.8-11.87-10.8h-11.4Zm-5.4,11.666c0-2.733,1.54-4.867,5.4-4.867h11.34c3.46,0,5,1.734,5,4.4,0,2.6-1.4,4.2-5.2,4.2h-16.54v-3.733Zm55.4-21.466v7.866h23.4c4.27,0,6.2,2.734,6.2,6,0,3.133-1.8,6.2-6.26,6.2h-16.2c-4.94,0-7.07,2.067-7.07,7.133v17.8h7.87V895.682a0.992,0.992,0,0,1,1.13-1.134h14c10.53,0,14.47-7.333,14.47-14.133,0-7.2-4.34-13.466-14.47-13.466h-23.07Zm54.47,9.8c-6.93,0-9.53,3.2-9.53,10.266v24.933h7.06V888.082c0-3.067,1.4-4.534,4.54-4.534h12.4v-6.8h-14.47Zm35,0c-9.4,0-15.27,5.733-15.27,17.6s5.87,17.6,15.27,17.6h7.4c9.33,0,15.26-5.733,15.26-17.6s-5.93-17.6-15.26-17.6h-7.4Zm6.73,6.8c6.07,0,8.8,3.2,8.8,10.8s-2.73,10.733-8.8,10.733h-6.06c-6.14,0-8.8-3.133-8.8-10.733s2.66-10.8,8.8-10.8h6.06Zm38-6.8c-9.4,0-15.27,5.466-15.27,16.8,0,11.4,5.87,16.933,15.27,16.933h15.53v1.6c0,5.067-1.73,7.134-7,7.134h-20.13v6.8h20.93c9.87,0,13.34-3.933,13.34-13.933V891.815c0-10.133-4.54-15.066-12.94-15.066h-9.73Zm-8.13,17.066c0-7.2,2.73-10.267,8.8-10.267h7c5.66,0,7.86,2.467,7.86,8.2v12.333h-14.86C1362.81,904.081,1360.08,901.015,1360.08,893.815Zm50.13-17.066c-6.93,0-9.53,3.2-9.53,10.266v24.933h7.06V888.082c0-3.067,1.4-4.534,4.54-4.534h12.4v-6.8h-14.47Zm22.8,0v6.8h21.07c3.86,0,5.4,2.134,5.4,4.867v2.667h-16.74c-8.66,0-11.86,3.733-11.86,10.133,0,6.666,3.46,10.733,11.8,10.733h16.46c5.94,0,7.27-2,7.27-7.067V888.348c0-6.666-3.47-11.6-12.27-11.6h-21.13Zm24.53,28.332h-14.8c-3.53,0-4.93-1.666-4.93-4.266s1.33-4.133,5.07-4.133h16.6v6.6C1459.48,904.548,1458.94,905.081,1457.54,905.081Zm23.8-28.332c-3.53,0-4.93,1.333-4.93,5.466v29.733h7.07v-27.4a0.817,0.817,0,0,1,.86-1h17.87v28.4h7.13v-28.4h8.27c7.4,0,10.6,3.067,10.6,8.6v19.8h7.13v-19.8c0-9.733-5.86-15.4-17.8-15.4h-36.2Zm68.8,0c-3.53,0-4.93,1.333-4.93,5.466v29.733h7.07v-27.4a0.817,0.817,0,0,1,.86-1h17.87v28.4h7.13v-28.4h8.27c7.4,0,10.6,3.067,10.6,8.6v19.8h7.13v-19.8c0-9.733-5.86-15.4-17.8-15.4h-36.2Zm75.4,0c-8.8,0-12.26,4.933-12.26,11.6v12c0,6.667,3.46,11.6,12.26,11.6h21.54v-6.867h-21.54c-3.86,0-5.4-2.066-5.4-4.866v-2.533h16.74c8.66,0,11.93-3.667,11.93-10.134,0-6.8-3.53-10.8-11.87-10.8h-11.4Zm-5.4,11.666c0-2.733,1.54-4.867,5.4-4.867h11.34c3.46,0,5,1.734,5,4.4,0,2.6-1.4,4.2-5.2,4.2h-16.54v-3.733Zm46.8-11.666c-6.93,0-9.53,3.2-9.53,10.266v24.933h7.07V888.082c0-3.067,1.4-4.534,4.53-4.534h12.4v-6.8h-14.47Zm20.6,26.133v9.066h7.6v-9.066h-7.6ZM335.025,928.149v50.466h7.067v-28.4h12.4c7.333,0,10.6,3.2,10.6,8.6v19.8h7.134v-19.8c0-9.667-5.867-15.4-17.733-15.4h-12.4V928.149h-7.067Zm58.666,15.266c-8.8,0-12.267,4.933-12.267,11.6v12c0,6.666,3.467,11.6,12.267,11.6h21.533v-6.867H393.691c-3.867,0-5.4-2.066-5.4-4.866v-2.534h16.733c8.666,0,11.933-3.666,11.933-10.133,0-6.8-3.533-10.8-11.866-10.8h-11.4Zm-5.4,11.667c0-2.734,1.533-4.867,5.4-4.867h11.333c3.467,0,5,1.733,5,4.4,0,2.6-1.4,4.2-5.2,4.2H388.291v-3.733Zm55.066-26.933-22.066,64.6h6.866l22-64.6h-6.8Zm12.6,0v50.466h7.067v-28.4h12.4c7.333,0,10.6,3.2,10.6,8.6v19.8h7.134v-19.8c0-9.667-5.867-15.4-17.733-15.4h-12.4V928.149h-7.067Zm47.133,15.266v35.2h7.066v-35.2h-7.066Zm0-13.266v8.2h7.133v-8.2h-7.133Zm22.133,13.266c-3.534,0-4.934,1.334-4.934,5.467v29.733h7.067v-27.4a0.821,0.821,0,0,1,.867-1h17.866v28.4h7.133v-28.4h8.267c7.4,0,10.6,3.067,10.6,8.6v19.8h7.133v-19.8c0-9.733-5.867-15.4-17.8-15.4h-36.2Z"/>
</svg>
