%TF.GenerationSoftware,KiCad,Pcbnew,10.0.3*%
%TF.CreationDate,2026-07-02T18:51:47+08:00*%
%TF.ProjectId,FalloutBadge,46616c6c-6f75-4744-9261-6467652e6b69,rev?*%
%TF.SameCoordinates,Original*%
%TF.FileFunction,Copper,L1,Top*%
%TF.FilePolarity,Positive*%
%FSLAX46Y46*%
G04 Gerber Fmt 4.6, Leading zero omitted, Abs format (unit mm)*
G04 Created by KiCad (PCBNEW 10.0.3) date 2026-07-02 18:51:47*
%MOMM*%
%LPD*%
G01*
G04 APERTURE LIST*
G04 Aperture macros list*
%AMRoundRect*
0 Rectangle with rounded corners*
0 $1 Rounding radius*
0 $2 $3 $4 $5 $6 $7 $8 $9 X,Y pos of 4 corners*
0 Add a 4 corners polygon primitive as box body*
4,1,4,$2,$3,$4,$5,$6,$7,$8,$9,$2,$3,0*
0 Add four circle primitives for the rounded corners*
1,1,$1+$1,$2,$3*
1,1,$1+$1,$4,$5*
1,1,$1+$1,$6,$7*
1,1,$1+$1,$8,$9*
0 Add four rect primitives between the rounded corners*
20,1,$1+$1,$2,$3,$4,$5,0*
20,1,$1+$1,$4,$5,$6,$7,0*
20,1,$1+$1,$6,$7,$8,$9,0*
20,1,$1+$1,$8,$9,$2,$3,0*%
G04 Aperture macros list end*
%TA.AperFunction,SMDPad,CuDef*%
%ADD10RoundRect,0.250000X-0.262500X-0.450000X0.262500X-0.450000X0.262500X0.450000X-0.262500X0.450000X0*%
%TD*%
%TA.AperFunction,SMDPad,CuDef*%
%ADD11RoundRect,0.150000X-0.512500X-0.150000X0.512500X-0.150000X0.512500X0.150000X-0.512500X0.150000X0*%
%TD*%
%TA.AperFunction,SMDPad,CuDef*%
%ADD12RoundRect,0.150000X0.512500X0.150000X-0.512500X0.150000X-0.512500X-0.150000X0.512500X-0.150000X0*%
%TD*%
%TA.AperFunction,SMDPad,CuDef*%
%ADD13RoundRect,0.250000X-0.450000X0.262500X-0.450000X-0.262500X0.450000X-0.262500X0.450000X0.262500X0*%
%TD*%
%TA.AperFunction,ComponentPad*%
%ADD14C,1.700000*%
%TD*%
%TA.AperFunction,ComponentPad*%
%ADD15R,1.700000X1.700000*%
%TD*%
%TA.AperFunction,ViaPad*%
%ADD16C,0.600000*%
%TD*%
%TA.AperFunction,Conductor*%
%ADD17C,0.200000*%
%TD*%
G04 APERTURE END LIST*
D10*
%TO.P,R9,1*%
%TO.N,Net-(Q20-G)*%
X50175000Y-56000000D03*
%TO.P,R9,2*%
%TO.N,/VCC*%
X52000000Y-56000000D03*
%TD*%
D11*
%TO.P,Q17,3,S_3*%
%TO.N,/GND*%
X22500000Y-56000000D03*
%TO.P,Q17,2,G_2*%
%TO.N,/IN_2*%
X20225000Y-56950000D03*
%TO.P,Q17,1,D_1*%
%TO.N,Net-(Q17-D)*%
X20225000Y-55050000D03*
%TD*%
%TO.P,Q25,1,D_1*%
%TO.N,/CARRY*%
X88725000Y-39050000D03*
%TO.P,Q25,2,G_2*%
%TO.N,Net-(Q25-G)*%
X88725000Y-40950000D03*
%TO.P,Q25,3,S_3*%
%TO.N,/GND*%
X91000000Y-40000000D03*
%TD*%
D10*
%TO.P,R10,1*%
%TO.N,/CARRY*%
X80675000Y-44000000D03*
%TO.P,R10,2*%
%TO.N,/VCC*%
X82500000Y-44000000D03*
%TD*%
D11*
%TO.P,Q26,1,D_1*%
%TO.N,Net-(Q25-G)*%
X83725000Y-56050000D03*
%TO.P,Q26,2,G_2*%
%TO.N,Net-(Q26-G)*%
X83725000Y-57950000D03*
%TO.P,Q26,3,S_3*%
%TO.N,/GND*%
X86000000Y-57000000D03*
%TD*%
%TO.P,Q24,3,S_3*%
%TO.N,/GND*%
X79500000Y-57000000D03*
%TO.P,Q24,2,G_2*%
%TO.N,Net-(Q24-G)*%
X77225000Y-57950000D03*
%TO.P,Q24,1,D_1*%
%TO.N,/IN_1*%
X77225000Y-56050000D03*
%TD*%
D10*
%TO.P,R47,2*%
%TO.N,/IN_1*%
X73000000Y-51500000D03*
%TO.P,R47,1*%
%TO.N,/VCC*%
X71175000Y-51500000D03*
%TD*%
%TO.P,R48,2*%
%TO.N,/IN_1*%
X73000000Y-64000000D03*
%TO.P,R48,1*%
%TO.N,Net-(Q24-G)*%
X71175000Y-64000000D03*
%TD*%
%TO.P,R49,1*%
%TO.N,/VCC*%
X89175000Y-51000000D03*
%TO.P,R49,2*%
%TO.N,Net-(Q25-G)*%
X91000000Y-51000000D03*
%TD*%
%TO.P,R50,2*%
%TO.N,/IN_2*%
X91500000Y-63500000D03*
%TO.P,R50,1*%
%TO.N,Net-(Q26-G)*%
X89675000Y-63500000D03*
%TD*%
%TO.P,R8,2*%
%TO.N,/VCC*%
X40412500Y-44500000D03*
%TO.P,R8,1*%
%TO.N,/RESULT*%
X38587500Y-44500000D03*
%TD*%
D11*
%TO.P,Q19,1,D_1*%
%TO.N,/RESULT*%
X30862500Y-43050000D03*
%TO.P,Q19,2,G_2*%
%TO.N,Net-(Q17-D)*%
X30862500Y-44950000D03*
%TO.P,Q19,3,S_3*%
%TO.N,/GND*%
X33137500Y-44000000D03*
%TD*%
%TO.P,Q20,3,S_3*%
%TO.N,/GND*%
X49275000Y-44050000D03*
%TO.P,Q20,2,G_2*%
%TO.N,Net-(Q20-G)*%
X47000000Y-45000000D03*
%TO.P,Q20,1,D_1*%
%TO.N,/RESULT*%
X47000000Y-43100000D03*
%TD*%
%TO.P,Q18,3,S_3*%
%TO.N,/VCC*%
X34500000Y-56000000D03*
%TO.P,Q18,2,G_2*%
%TO.N,/IN_1*%
X32225000Y-56950000D03*
%TO.P,Q18,1,D_1*%
%TO.N,Net-(Q17-D)*%
X32225000Y-55050000D03*
%TD*%
%TO.P,Q22,3,S_3*%
%TO.N,/VCC*%
X60637500Y-56000000D03*
%TO.P,Q22,2,G_2*%
%TO.N,/IN_2*%
X58362500Y-56950000D03*
%TO.P,Q22,1,D_1*%
%TO.N,Net-(Q20-G)*%
X58362500Y-55050000D03*
%TD*%
%TO.P,Q21,3,S_3*%
%TO.N,/GND*%
X44000000Y-56000000D03*
%TO.P,Q21,2,G_2*%
%TO.N,/IN_1*%
X41725000Y-56950000D03*
%TO.P,Q21,1,D_1*%
%TO.N,Net-(Q20-G)*%
X41725000Y-55050000D03*
%TD*%
D12*
%TO.P,Q23,3,S_3*%
%TO.N,/GND*%
X70862500Y-40000000D03*
%TO.P,Q23,2,G_2*%
%TO.N,/IN_1*%
X73137500Y-39050000D03*
%TO.P,Q23,1,D_1*%
%TO.N,/CARRY*%
X73137500Y-40950000D03*
%TD*%
D13*
%TO.P,R7,1*%
%TO.N,Net-(Q17-D)*%
X27000000Y-55587500D03*
%TO.P,R7,2*%
%TO.N,/VCC*%
X27000000Y-57412500D03*
%TD*%
D14*
%TO.P,J1,6,Pin_6_6*%
%TO.N,/CARRY*%
X53340000Y-33000000D03*
%TO.P,J1,5,Pin_5_5*%
%TO.N,/RESULT*%
X55880000Y-33000000D03*
%TO.P,J1,4,Pin_4_4*%
%TO.N,/IN_2*%
X58420000Y-33000000D03*
%TO.P,J1,3,Pin_3_3*%
%TO.N,/IN_1*%
X60960000Y-33000000D03*
%TO.P,J1,2,Pin_2_2*%
%TO.N,/GND*%
X63500000Y-33000000D03*
D15*
%TO.P,J1,1,Pin_1_1*%
%TO.N,/VCC*%
X66040000Y-33000000D03*
%TD*%
D16*
%TO.N,/IN_2*%
X20225000Y-56950000D03*
%TO.N,/GND*%
X49275000Y-44050000D03*
X33000000Y-44000000D03*
%TO.N,/IN_2*%
X91500000Y-63500000D03*
%TO.N,Net-(Q20-G)*%
X47000000Y-49775000D03*
X50000000Y-56000000D03*
%TO.N,/CARRY*%
X73600000Y-40950000D03*
%TO.N,/IN_2*%
X58362500Y-56950000D03*
%TO.N,/CARRY*%
X88725000Y-39050000D03*
X80675000Y-44000000D03*
%TO.N,/IN_1*%
X73000000Y-39000000D03*
X73000000Y-51500000D03*
%TD*%
%TO.N,Net-(Q20-G)*%
D17*
X51424999Y-54750001D02*
X50175000Y-56000000D01*
X58062501Y-54750001D02*
X51424999Y-54750001D01*
X58362500Y-55050000D02*
X58062501Y-54750001D01*
%TO.N,/GND*%
X33137500Y-44000000D02*
X33000000Y-44000000D01*
%TO.N,Net-(Q20-G)*%
X50175000Y-56000000D02*
X50000000Y-56000000D01*
%TO.N,/RESULT*%
X55880000Y-33000000D02*
X47000000Y-41880000D01*
X47000000Y-41880000D02*
X47000000Y-43100000D01*
%TO.N,/IN_1*%
X67355686Y-31450000D02*
X73137500Y-37231814D01*
X62510000Y-31450000D02*
X67355686Y-31450000D01*
X73137500Y-37231814D02*
X73137500Y-39050000D01*
X60960000Y-33000000D02*
X62510000Y-31450000D01*
%TO.N,/GND*%
X70862500Y-35522500D02*
X70862500Y-40000000D01*
X67190000Y-31850000D02*
X70862500Y-35522500D01*
X64650000Y-31850000D02*
X67190000Y-31850000D01*
X63500000Y-33000000D02*
X64650000Y-31850000D01*
%TO.N,/VCC*%
X40512500Y-44400000D02*
X40412500Y-44500000D01*
X48571948Y-43450000D02*
X47621948Y-44400000D01*
X47621948Y-44400000D02*
X40512500Y-44400000D01*
X55590000Y-43450000D02*
X48571948Y-43450000D01*
X66040000Y-33000000D02*
X55590000Y-43450000D01*
%TO.N,/GND*%
X91812500Y-40812500D02*
X91812500Y-51849999D01*
X79500000Y-57000000D02*
X86000000Y-57000000D01*
X86662499Y-57000000D02*
X86000000Y-57000000D01*
X91812500Y-51849999D02*
X86662499Y-57000000D01*
X91000000Y-40000000D02*
X91812500Y-40812500D01*
%TO.N,/IN_1*%
X73050000Y-39050000D02*
X73000000Y-39000000D01*
X73137500Y-39050000D02*
X73050000Y-39050000D01*
%TO.N,/CARRY*%
X77625000Y-40950000D02*
X80675000Y-44000000D01*
X73137500Y-40950000D02*
X77625000Y-40950000D01*
%TO.N,/GND*%
X66450000Y-44050000D02*
X49275000Y-44050000D01*
X70500000Y-40000000D02*
X66450000Y-44050000D01*
X70862500Y-40000000D02*
X70500000Y-40000000D01*
X70862500Y-40000000D02*
X91000000Y-40000000D01*
%TO.N,/IN_1*%
X73000000Y-51500000D02*
X73000000Y-51825000D01*
X49775000Y-65000000D02*
X72000000Y-65000000D01*
X72000000Y-65000000D02*
X73000000Y-64000000D01*
X41725000Y-56950000D02*
X49775000Y-65000000D01*
%TO.N,/VCC*%
X66000000Y-56000000D02*
X60637500Y-56000000D01*
X70500000Y-51500000D02*
X66000000Y-56000000D01*
X71175000Y-51500000D02*
X70500000Y-51500000D01*
X73975000Y-48000000D02*
X71175000Y-50800000D01*
X71175000Y-50800000D02*
X71175000Y-51500000D01*
X78500000Y-48000000D02*
X73975000Y-48000000D01*
X82500000Y-44000000D02*
X78500000Y-48000000D01*
%TO.N,Net-(Q25-G)*%
X85950000Y-56050000D02*
X91000000Y-51000000D01*
X83725000Y-56050000D02*
X85950000Y-56050000D01*
X91000000Y-43225000D02*
X88725000Y-40950000D01*
X91000000Y-51000000D02*
X91000000Y-43225000D01*
%TO.N,Net-(Q24-G)*%
X72175000Y-63000000D02*
X71175000Y-64000000D01*
X72502756Y-50500000D02*
X72175000Y-50827756D01*
X72175000Y-50827756D02*
X72175000Y-63000000D01*
X73497244Y-50500000D02*
X72502756Y-50500000D01*
X78187500Y-56987500D02*
X78187500Y-55190256D01*
X77225000Y-57950000D02*
X78187500Y-56987500D01*
X78187500Y-55190256D02*
X73497244Y-50500000D01*
%TO.N,/IN_1*%
X73000000Y-60275000D02*
X73000000Y-64000000D01*
X77225000Y-56050000D02*
X73000000Y-60275000D01*
X77225000Y-56050000D02*
X73000000Y-51825000D01*
%TO.N,/VCC*%
X82500000Y-44000000D02*
X82500000Y-44325000D01*
X82500000Y-44325000D02*
X89175000Y-51000000D01*
%TO.N,Net-(Q26-G)*%
X89275000Y-63500000D02*
X83725000Y-57950000D01*
X89675000Y-63500000D02*
X89275000Y-63500000D01*
%TO.N,/VCC*%
X52000000Y-56000000D02*
X60637500Y-56000000D01*
X43696948Y-57000000D02*
X51000000Y-57000000D01*
X43037500Y-56340552D02*
X43696948Y-57000000D01*
X40412500Y-55040552D02*
X41712500Y-56340552D01*
X40412500Y-50087500D02*
X40412500Y-55040552D01*
X41712500Y-56340552D02*
X43037500Y-56340552D01*
X51000000Y-57000000D02*
X52000000Y-56000000D01*
%TO.N,/GND*%
X49275000Y-50725000D02*
X49275000Y-44050000D01*
X44000000Y-56000000D02*
X49275000Y-50725000D01*
%TO.N,Net-(Q20-G)*%
X47000000Y-49775000D02*
X47000000Y-45000000D01*
X41725000Y-55050000D02*
X47000000Y-49775000D01*
%TO.N,/VCC*%
X40412500Y-50087500D02*
X34500000Y-56000000D01*
X40412500Y-44500000D02*
X40412500Y-50087500D01*
%TO.N,/RESULT*%
X37137500Y-43050000D02*
X30862500Y-43050000D01*
X38587500Y-44500000D02*
X37137500Y-43050000D01*
%TO.N,Net-(Q17-D)*%
X20762500Y-55050000D02*
X20225000Y-55050000D01*
X30862500Y-44950000D02*
X20762500Y-55050000D01*
%TO.N,/VCC*%
X28412500Y-56000000D02*
X34500000Y-56000000D01*
X27000000Y-57412500D02*
X28412500Y-56000000D01*
%TO.N,/IN_1*%
X32225000Y-56950000D02*
X41725000Y-56950000D01*
%TO.N,/GND*%
X29971948Y-44000000D02*
X33137500Y-44000000D01*
X19262500Y-54709448D02*
X29971948Y-44000000D01*
X19262500Y-55390552D02*
X19262500Y-54709448D01*
X22500000Y-56000000D02*
X19871948Y-56000000D01*
X19871948Y-56000000D02*
X19262500Y-55390552D01*
%TO.N,Net-(Q17-D)*%
X26462500Y-55050000D02*
X20225000Y-55050000D01*
X27000000Y-55587500D02*
X26462500Y-55050000D01*
X31687500Y-55587500D02*
X32225000Y-55050000D01*
X27000000Y-55587500D02*
X31687500Y-55587500D01*
%TO.N,/RESULT*%
X38587500Y-44500000D02*
X39987500Y-43100000D01*
X39987500Y-43100000D02*
X47000000Y-43100000D01*
%TD*%
M02*
