%TF.GenerationSoftware,KiCad,Pcbnew,10.0.3*%
%TF.CreationDate,2026-07-02T18:51:47+08:00*%
%TF.ProjectId,FalloutBadge,46616c6c-6f75-4744-9261-6467652e6b69,rev?*%
%TF.SameCoordinates,Original*%
%TF.FileFunction,Legend,Top*%
%TF.FilePolarity,Positive*%
%FSLAX46Y46*%
G04 Gerber Fmt 4.6, Leading zero omitted, Abs format (unit mm)*
G04 Created by KiCad (PCBNEW 10.0.3) date 2026-07-02 18:51:47*
%MOMM*%
%LPD*%
G01*
G04 APERTURE LIST*
%ADD10C,0.150000*%
%ADD11C,0.000000*%
%ADD12C,0.120000*%
G04 APERTURE END LIST*
D10*
X50920833Y-54804819D02*
X50587500Y-54328628D01*
X50349405Y-54804819D02*
X50349405Y-53804819D01*
X50349405Y-53804819D02*
X50730357Y-53804819D01*
X50730357Y-53804819D02*
X50825595Y-53852438D01*
X50825595Y-53852438D02*
X50873214Y-53900057D01*
X50873214Y-53900057D02*
X50920833Y-53995295D01*
X50920833Y-53995295D02*
X50920833Y-54138152D01*
X50920833Y-54138152D02*
X50873214Y-54233390D01*
X50873214Y-54233390D02*
X50825595Y-54281009D01*
X50825595Y-54281009D02*
X50730357Y-54328628D01*
X50730357Y-54328628D02*
X50349405Y-54328628D01*
X51397024Y-54804819D02*
X51587500Y-54804819D01*
X51587500Y-54804819D02*
X51682738Y-54757200D01*
X51682738Y-54757200D02*
X51730357Y-54709580D01*
X51730357Y-54709580D02*
X51825595Y-54566723D01*
X51825595Y-54566723D02*
X51873214Y-54376247D01*
X51873214Y-54376247D02*
X51873214Y-53995295D01*
X51873214Y-53995295D02*
X51825595Y-53900057D01*
X51825595Y-53900057D02*
X51777976Y-53852438D01*
X51777976Y-53852438D02*
X51682738Y-53804819D01*
X51682738Y-53804819D02*
X51492262Y-53804819D01*
X51492262Y-53804819D02*
X51397024Y-53852438D01*
X51397024Y-53852438D02*
X51349405Y-53900057D01*
X51349405Y-53900057D02*
X51301786Y-53995295D01*
X51301786Y-53995295D02*
X51301786Y-54233390D01*
X51301786Y-54233390D02*
X51349405Y-54328628D01*
X51349405Y-54328628D02*
X51397024Y-54376247D01*
X51397024Y-54376247D02*
X51492262Y-54423866D01*
X51492262Y-54423866D02*
X51682738Y-54423866D01*
X51682738Y-54423866D02*
X51777976Y-54376247D01*
X51777976Y-54376247D02*
X51825595Y-54328628D01*
X51825595Y-54328628D02*
X51873214Y-54233390D01*
X20791071Y-54150057D02*
X20695833Y-54102438D01*
X20695833Y-54102438D02*
X20600595Y-54007200D01*
X20600595Y-54007200D02*
X20457738Y-53864342D01*
X20457738Y-53864342D02*
X20362500Y-53816723D01*
X20362500Y-53816723D02*
X20267262Y-53816723D01*
X20314881Y-54054819D02*
X20219643Y-54007200D01*
X20219643Y-54007200D02*
X20124405Y-53911961D01*
X20124405Y-53911961D02*
X20076786Y-53721485D01*
X20076786Y-53721485D02*
X20076786Y-53388152D01*
X20076786Y-53388152D02*
X20124405Y-53197676D01*
X20124405Y-53197676D02*
X20219643Y-53102438D01*
X20219643Y-53102438D02*
X20314881Y-53054819D01*
X20314881Y-53054819D02*
X20505357Y-53054819D01*
X20505357Y-53054819D02*
X20600595Y-53102438D01*
X20600595Y-53102438D02*
X20695833Y-53197676D01*
X20695833Y-53197676D02*
X20743452Y-53388152D01*
X20743452Y-53388152D02*
X20743452Y-53721485D01*
X20743452Y-53721485D02*
X20695833Y-53911961D01*
X20695833Y-53911961D02*
X20600595Y-54007200D01*
X20600595Y-54007200D02*
X20505357Y-54054819D01*
X20505357Y-54054819D02*
X20314881Y-54054819D01*
X21695833Y-54054819D02*
X21124405Y-54054819D01*
X21410119Y-54054819D02*
X21410119Y-53054819D01*
X21410119Y-53054819D02*
X21314881Y-53197676D01*
X21314881Y-53197676D02*
X21219643Y-53292914D01*
X21219643Y-53292914D02*
X21124405Y-53340533D01*
X22029167Y-53054819D02*
X22695833Y-53054819D01*
X22695833Y-53054819D02*
X22267262Y-54054819D01*
X89291071Y-38150057D02*
X89195833Y-38102438D01*
X89195833Y-38102438D02*
X89100595Y-38007200D01*
X89100595Y-38007200D02*
X88957738Y-37864342D01*
X88957738Y-37864342D02*
X88862500Y-37816723D01*
X88862500Y-37816723D02*
X88767262Y-37816723D01*
X88814881Y-38054819D02*
X88719643Y-38007200D01*
X88719643Y-38007200D02*
X88624405Y-37911961D01*
X88624405Y-37911961D02*
X88576786Y-37721485D01*
X88576786Y-37721485D02*
X88576786Y-37388152D01*
X88576786Y-37388152D02*
X88624405Y-37197676D01*
X88624405Y-37197676D02*
X88719643Y-37102438D01*
X88719643Y-37102438D02*
X88814881Y-37054819D01*
X88814881Y-37054819D02*
X89005357Y-37054819D01*
X89005357Y-37054819D02*
X89100595Y-37102438D01*
X89100595Y-37102438D02*
X89195833Y-37197676D01*
X89195833Y-37197676D02*
X89243452Y-37388152D01*
X89243452Y-37388152D02*
X89243452Y-37721485D01*
X89243452Y-37721485D02*
X89195833Y-37911961D01*
X89195833Y-37911961D02*
X89100595Y-38007200D01*
X89100595Y-38007200D02*
X89005357Y-38054819D01*
X89005357Y-38054819D02*
X88814881Y-38054819D01*
X89624405Y-37150057D02*
X89672024Y-37102438D01*
X89672024Y-37102438D02*
X89767262Y-37054819D01*
X89767262Y-37054819D02*
X90005357Y-37054819D01*
X90005357Y-37054819D02*
X90100595Y-37102438D01*
X90100595Y-37102438D02*
X90148214Y-37150057D01*
X90148214Y-37150057D02*
X90195833Y-37245295D01*
X90195833Y-37245295D02*
X90195833Y-37340533D01*
X90195833Y-37340533D02*
X90148214Y-37483390D01*
X90148214Y-37483390D02*
X89576786Y-38054819D01*
X89576786Y-38054819D02*
X90195833Y-38054819D01*
X91100595Y-37054819D02*
X90624405Y-37054819D01*
X90624405Y-37054819D02*
X90576786Y-37531009D01*
X90576786Y-37531009D02*
X90624405Y-37483390D01*
X90624405Y-37483390D02*
X90719643Y-37435771D01*
X90719643Y-37435771D02*
X90957738Y-37435771D01*
X90957738Y-37435771D02*
X91052976Y-37483390D01*
X91052976Y-37483390D02*
X91100595Y-37531009D01*
X91100595Y-37531009D02*
X91148214Y-37626247D01*
X91148214Y-37626247D02*
X91148214Y-37864342D01*
X91148214Y-37864342D02*
X91100595Y-37959580D01*
X91100595Y-37959580D02*
X91052976Y-38007200D01*
X91052976Y-38007200D02*
X90957738Y-38054819D01*
X90957738Y-38054819D02*
X90719643Y-38054819D01*
X90719643Y-38054819D02*
X90624405Y-38007200D01*
X90624405Y-38007200D02*
X90576786Y-37959580D01*
X80944642Y-42804819D02*
X80611309Y-42328628D01*
X80373214Y-42804819D02*
X80373214Y-41804819D01*
X80373214Y-41804819D02*
X80754166Y-41804819D01*
X80754166Y-41804819D02*
X80849404Y-41852438D01*
X80849404Y-41852438D02*
X80897023Y-41900057D01*
X80897023Y-41900057D02*
X80944642Y-41995295D01*
X80944642Y-41995295D02*
X80944642Y-42138152D01*
X80944642Y-42138152D02*
X80897023Y-42233390D01*
X80897023Y-42233390D02*
X80849404Y-42281009D01*
X80849404Y-42281009D02*
X80754166Y-42328628D01*
X80754166Y-42328628D02*
X80373214Y-42328628D01*
X81897023Y-42804819D02*
X81325595Y-42804819D01*
X81611309Y-42804819D02*
X81611309Y-41804819D01*
X81611309Y-41804819D02*
X81516071Y-41947676D01*
X81516071Y-41947676D02*
X81420833Y-42042914D01*
X81420833Y-42042914D02*
X81325595Y-42090533D01*
X82516071Y-41804819D02*
X82611309Y-41804819D01*
X82611309Y-41804819D02*
X82706547Y-41852438D01*
X82706547Y-41852438D02*
X82754166Y-41900057D01*
X82754166Y-41900057D02*
X82801785Y-41995295D01*
X82801785Y-41995295D02*
X82849404Y-42185771D01*
X82849404Y-42185771D02*
X82849404Y-42423866D01*
X82849404Y-42423866D02*
X82801785Y-42614342D01*
X82801785Y-42614342D02*
X82754166Y-42709580D01*
X82754166Y-42709580D02*
X82706547Y-42757200D01*
X82706547Y-42757200D02*
X82611309Y-42804819D01*
X82611309Y-42804819D02*
X82516071Y-42804819D01*
X82516071Y-42804819D02*
X82420833Y-42757200D01*
X82420833Y-42757200D02*
X82373214Y-42709580D01*
X82373214Y-42709580D02*
X82325595Y-42614342D01*
X82325595Y-42614342D02*
X82277976Y-42423866D01*
X82277976Y-42423866D02*
X82277976Y-42185771D01*
X82277976Y-42185771D02*
X82325595Y-41995295D01*
X82325595Y-41995295D02*
X82373214Y-41900057D01*
X82373214Y-41900057D02*
X82420833Y-41852438D01*
X82420833Y-41852438D02*
X82516071Y-41804819D01*
X84291071Y-55150057D02*
X84195833Y-55102438D01*
X84195833Y-55102438D02*
X84100595Y-55007200D01*
X84100595Y-55007200D02*
X83957738Y-54864342D01*
X83957738Y-54864342D02*
X83862500Y-54816723D01*
X83862500Y-54816723D02*
X83767262Y-54816723D01*
X83814881Y-55054819D02*
X83719643Y-55007200D01*
X83719643Y-55007200D02*
X83624405Y-54911961D01*
X83624405Y-54911961D02*
X83576786Y-54721485D01*
X83576786Y-54721485D02*
X83576786Y-54388152D01*
X83576786Y-54388152D02*
X83624405Y-54197676D01*
X83624405Y-54197676D02*
X83719643Y-54102438D01*
X83719643Y-54102438D02*
X83814881Y-54054819D01*
X83814881Y-54054819D02*
X84005357Y-54054819D01*
X84005357Y-54054819D02*
X84100595Y-54102438D01*
X84100595Y-54102438D02*
X84195833Y-54197676D01*
X84195833Y-54197676D02*
X84243452Y-54388152D01*
X84243452Y-54388152D02*
X84243452Y-54721485D01*
X84243452Y-54721485D02*
X84195833Y-54911961D01*
X84195833Y-54911961D02*
X84100595Y-55007200D01*
X84100595Y-55007200D02*
X84005357Y-55054819D01*
X84005357Y-55054819D02*
X83814881Y-55054819D01*
X84624405Y-54150057D02*
X84672024Y-54102438D01*
X84672024Y-54102438D02*
X84767262Y-54054819D01*
X84767262Y-54054819D02*
X85005357Y-54054819D01*
X85005357Y-54054819D02*
X85100595Y-54102438D01*
X85100595Y-54102438D02*
X85148214Y-54150057D01*
X85148214Y-54150057D02*
X85195833Y-54245295D01*
X85195833Y-54245295D02*
X85195833Y-54340533D01*
X85195833Y-54340533D02*
X85148214Y-54483390D01*
X85148214Y-54483390D02*
X84576786Y-55054819D01*
X84576786Y-55054819D02*
X85195833Y-55054819D01*
X86052976Y-54054819D02*
X85862500Y-54054819D01*
X85862500Y-54054819D02*
X85767262Y-54102438D01*
X85767262Y-54102438D02*
X85719643Y-54150057D01*
X85719643Y-54150057D02*
X85624405Y-54292914D01*
X85624405Y-54292914D02*
X85576786Y-54483390D01*
X85576786Y-54483390D02*
X85576786Y-54864342D01*
X85576786Y-54864342D02*
X85624405Y-54959580D01*
X85624405Y-54959580D02*
X85672024Y-55007200D01*
X85672024Y-55007200D02*
X85767262Y-55054819D01*
X85767262Y-55054819D02*
X85957738Y-55054819D01*
X85957738Y-55054819D02*
X86052976Y-55007200D01*
X86052976Y-55007200D02*
X86100595Y-54959580D01*
X86100595Y-54959580D02*
X86148214Y-54864342D01*
X86148214Y-54864342D02*
X86148214Y-54626247D01*
X86148214Y-54626247D02*
X86100595Y-54531009D01*
X86100595Y-54531009D02*
X86052976Y-54483390D01*
X86052976Y-54483390D02*
X85957738Y-54435771D01*
X85957738Y-54435771D02*
X85767262Y-54435771D01*
X85767262Y-54435771D02*
X85672024Y-54483390D01*
X85672024Y-54483390D02*
X85624405Y-54531009D01*
X85624405Y-54531009D02*
X85576786Y-54626247D01*
X77791071Y-55150057D02*
X77695833Y-55102438D01*
X77695833Y-55102438D02*
X77600595Y-55007200D01*
X77600595Y-55007200D02*
X77457738Y-54864342D01*
X77457738Y-54864342D02*
X77362500Y-54816723D01*
X77362500Y-54816723D02*
X77267262Y-54816723D01*
X77314881Y-55054819D02*
X77219643Y-55007200D01*
X77219643Y-55007200D02*
X77124405Y-54911961D01*
X77124405Y-54911961D02*
X77076786Y-54721485D01*
X77076786Y-54721485D02*
X77076786Y-54388152D01*
X77076786Y-54388152D02*
X77124405Y-54197676D01*
X77124405Y-54197676D02*
X77219643Y-54102438D01*
X77219643Y-54102438D02*
X77314881Y-54054819D01*
X77314881Y-54054819D02*
X77505357Y-54054819D01*
X77505357Y-54054819D02*
X77600595Y-54102438D01*
X77600595Y-54102438D02*
X77695833Y-54197676D01*
X77695833Y-54197676D02*
X77743452Y-54388152D01*
X77743452Y-54388152D02*
X77743452Y-54721485D01*
X77743452Y-54721485D02*
X77695833Y-54911961D01*
X77695833Y-54911961D02*
X77600595Y-55007200D01*
X77600595Y-55007200D02*
X77505357Y-55054819D01*
X77505357Y-55054819D02*
X77314881Y-55054819D01*
X78124405Y-54150057D02*
X78172024Y-54102438D01*
X78172024Y-54102438D02*
X78267262Y-54054819D01*
X78267262Y-54054819D02*
X78505357Y-54054819D01*
X78505357Y-54054819D02*
X78600595Y-54102438D01*
X78600595Y-54102438D02*
X78648214Y-54150057D01*
X78648214Y-54150057D02*
X78695833Y-54245295D01*
X78695833Y-54245295D02*
X78695833Y-54340533D01*
X78695833Y-54340533D02*
X78648214Y-54483390D01*
X78648214Y-54483390D02*
X78076786Y-55054819D01*
X78076786Y-55054819D02*
X78695833Y-55054819D01*
X79552976Y-54388152D02*
X79552976Y-55054819D01*
X79314881Y-54007200D02*
X79076786Y-54721485D01*
X79076786Y-54721485D02*
X79695833Y-54721485D01*
X71444642Y-50304819D02*
X71111309Y-49828628D01*
X70873214Y-50304819D02*
X70873214Y-49304819D01*
X70873214Y-49304819D02*
X71254166Y-49304819D01*
X71254166Y-49304819D02*
X71349404Y-49352438D01*
X71349404Y-49352438D02*
X71397023Y-49400057D01*
X71397023Y-49400057D02*
X71444642Y-49495295D01*
X71444642Y-49495295D02*
X71444642Y-49638152D01*
X71444642Y-49638152D02*
X71397023Y-49733390D01*
X71397023Y-49733390D02*
X71349404Y-49781009D01*
X71349404Y-49781009D02*
X71254166Y-49828628D01*
X71254166Y-49828628D02*
X70873214Y-49828628D01*
X72301785Y-49638152D02*
X72301785Y-50304819D01*
X72063690Y-49257200D02*
X71825595Y-49971485D01*
X71825595Y-49971485D02*
X72444642Y-49971485D01*
X72730357Y-49304819D02*
X73397023Y-49304819D01*
X73397023Y-49304819D02*
X72968452Y-50304819D01*
X71444642Y-62804819D02*
X71111309Y-62328628D01*
X70873214Y-62804819D02*
X70873214Y-61804819D01*
X70873214Y-61804819D02*
X71254166Y-61804819D01*
X71254166Y-61804819D02*
X71349404Y-61852438D01*
X71349404Y-61852438D02*
X71397023Y-61900057D01*
X71397023Y-61900057D02*
X71444642Y-61995295D01*
X71444642Y-61995295D02*
X71444642Y-62138152D01*
X71444642Y-62138152D02*
X71397023Y-62233390D01*
X71397023Y-62233390D02*
X71349404Y-62281009D01*
X71349404Y-62281009D02*
X71254166Y-62328628D01*
X71254166Y-62328628D02*
X70873214Y-62328628D01*
X72301785Y-62138152D02*
X72301785Y-62804819D01*
X72063690Y-61757200D02*
X71825595Y-62471485D01*
X71825595Y-62471485D02*
X72444642Y-62471485D01*
X72968452Y-62233390D02*
X72873214Y-62185771D01*
X72873214Y-62185771D02*
X72825595Y-62138152D01*
X72825595Y-62138152D02*
X72777976Y-62042914D01*
X72777976Y-62042914D02*
X72777976Y-61995295D01*
X72777976Y-61995295D02*
X72825595Y-61900057D01*
X72825595Y-61900057D02*
X72873214Y-61852438D01*
X72873214Y-61852438D02*
X72968452Y-61804819D01*
X72968452Y-61804819D02*
X73158928Y-61804819D01*
X73158928Y-61804819D02*
X73254166Y-61852438D01*
X73254166Y-61852438D02*
X73301785Y-61900057D01*
X73301785Y-61900057D02*
X73349404Y-61995295D01*
X73349404Y-61995295D02*
X73349404Y-62042914D01*
X73349404Y-62042914D02*
X73301785Y-62138152D01*
X73301785Y-62138152D02*
X73254166Y-62185771D01*
X73254166Y-62185771D02*
X73158928Y-62233390D01*
X73158928Y-62233390D02*
X72968452Y-62233390D01*
X72968452Y-62233390D02*
X72873214Y-62281009D01*
X72873214Y-62281009D02*
X72825595Y-62328628D01*
X72825595Y-62328628D02*
X72777976Y-62423866D01*
X72777976Y-62423866D02*
X72777976Y-62614342D01*
X72777976Y-62614342D02*
X72825595Y-62709580D01*
X72825595Y-62709580D02*
X72873214Y-62757200D01*
X72873214Y-62757200D02*
X72968452Y-62804819D01*
X72968452Y-62804819D02*
X73158928Y-62804819D01*
X73158928Y-62804819D02*
X73254166Y-62757200D01*
X73254166Y-62757200D02*
X73301785Y-62709580D01*
X73301785Y-62709580D02*
X73349404Y-62614342D01*
X73349404Y-62614342D02*
X73349404Y-62423866D01*
X73349404Y-62423866D02*
X73301785Y-62328628D01*
X73301785Y-62328628D02*
X73254166Y-62281009D01*
X73254166Y-62281009D02*
X73158928Y-62233390D01*
X89444642Y-49804819D02*
X89111309Y-49328628D01*
X88873214Y-49804819D02*
X88873214Y-48804819D01*
X88873214Y-48804819D02*
X89254166Y-48804819D01*
X89254166Y-48804819D02*
X89349404Y-48852438D01*
X89349404Y-48852438D02*
X89397023Y-48900057D01*
X89397023Y-48900057D02*
X89444642Y-48995295D01*
X89444642Y-48995295D02*
X89444642Y-49138152D01*
X89444642Y-49138152D02*
X89397023Y-49233390D01*
X89397023Y-49233390D02*
X89349404Y-49281009D01*
X89349404Y-49281009D02*
X89254166Y-49328628D01*
X89254166Y-49328628D02*
X88873214Y-49328628D01*
X90301785Y-49138152D02*
X90301785Y-49804819D01*
X90063690Y-48757200D02*
X89825595Y-49471485D01*
X89825595Y-49471485D02*
X90444642Y-49471485D01*
X90873214Y-49804819D02*
X91063690Y-49804819D01*
X91063690Y-49804819D02*
X91158928Y-49757200D01*
X91158928Y-49757200D02*
X91206547Y-49709580D01*
X91206547Y-49709580D02*
X91301785Y-49566723D01*
X91301785Y-49566723D02*
X91349404Y-49376247D01*
X91349404Y-49376247D02*
X91349404Y-48995295D01*
X91349404Y-48995295D02*
X91301785Y-48900057D01*
X91301785Y-48900057D02*
X91254166Y-48852438D01*
X91254166Y-48852438D02*
X91158928Y-48804819D01*
X91158928Y-48804819D02*
X90968452Y-48804819D01*
X90968452Y-48804819D02*
X90873214Y-48852438D01*
X90873214Y-48852438D02*
X90825595Y-48900057D01*
X90825595Y-48900057D02*
X90777976Y-48995295D01*
X90777976Y-48995295D02*
X90777976Y-49233390D01*
X90777976Y-49233390D02*
X90825595Y-49328628D01*
X90825595Y-49328628D02*
X90873214Y-49376247D01*
X90873214Y-49376247D02*
X90968452Y-49423866D01*
X90968452Y-49423866D02*
X91158928Y-49423866D01*
X91158928Y-49423866D02*
X91254166Y-49376247D01*
X91254166Y-49376247D02*
X91301785Y-49328628D01*
X91301785Y-49328628D02*
X91349404Y-49233390D01*
X89944642Y-62304819D02*
X89611309Y-61828628D01*
X89373214Y-62304819D02*
X89373214Y-61304819D01*
X89373214Y-61304819D02*
X89754166Y-61304819D01*
X89754166Y-61304819D02*
X89849404Y-61352438D01*
X89849404Y-61352438D02*
X89897023Y-61400057D01*
X89897023Y-61400057D02*
X89944642Y-61495295D01*
X89944642Y-61495295D02*
X89944642Y-61638152D01*
X89944642Y-61638152D02*
X89897023Y-61733390D01*
X89897023Y-61733390D02*
X89849404Y-61781009D01*
X89849404Y-61781009D02*
X89754166Y-61828628D01*
X89754166Y-61828628D02*
X89373214Y-61828628D01*
X90849404Y-61304819D02*
X90373214Y-61304819D01*
X90373214Y-61304819D02*
X90325595Y-61781009D01*
X90325595Y-61781009D02*
X90373214Y-61733390D01*
X90373214Y-61733390D02*
X90468452Y-61685771D01*
X90468452Y-61685771D02*
X90706547Y-61685771D01*
X90706547Y-61685771D02*
X90801785Y-61733390D01*
X90801785Y-61733390D02*
X90849404Y-61781009D01*
X90849404Y-61781009D02*
X90897023Y-61876247D01*
X90897023Y-61876247D02*
X90897023Y-62114342D01*
X90897023Y-62114342D02*
X90849404Y-62209580D01*
X90849404Y-62209580D02*
X90801785Y-62257200D01*
X90801785Y-62257200D02*
X90706547Y-62304819D01*
X90706547Y-62304819D02*
X90468452Y-62304819D01*
X90468452Y-62304819D02*
X90373214Y-62257200D01*
X90373214Y-62257200D02*
X90325595Y-62209580D01*
X91516071Y-61304819D02*
X91611309Y-61304819D01*
X91611309Y-61304819D02*
X91706547Y-61352438D01*
X91706547Y-61352438D02*
X91754166Y-61400057D01*
X91754166Y-61400057D02*
X91801785Y-61495295D01*
X91801785Y-61495295D02*
X91849404Y-61685771D01*
X91849404Y-61685771D02*
X91849404Y-61923866D01*
X91849404Y-61923866D02*
X91801785Y-62114342D01*
X91801785Y-62114342D02*
X91754166Y-62209580D01*
X91754166Y-62209580D02*
X91706547Y-62257200D01*
X91706547Y-62257200D02*
X91611309Y-62304819D01*
X91611309Y-62304819D02*
X91516071Y-62304819D01*
X91516071Y-62304819D02*
X91420833Y-62257200D01*
X91420833Y-62257200D02*
X91373214Y-62209580D01*
X91373214Y-62209580D02*
X91325595Y-62114342D01*
X91325595Y-62114342D02*
X91277976Y-61923866D01*
X91277976Y-61923866D02*
X91277976Y-61685771D01*
X91277976Y-61685771D02*
X91325595Y-61495295D01*
X91325595Y-61495295D02*
X91373214Y-61400057D01*
X91373214Y-61400057D02*
X91420833Y-61352438D01*
X91420833Y-61352438D02*
X91516071Y-61304819D01*
X39333333Y-43304819D02*
X39000000Y-42828628D01*
X38761905Y-43304819D02*
X38761905Y-42304819D01*
X38761905Y-42304819D02*
X39142857Y-42304819D01*
X39142857Y-42304819D02*
X39238095Y-42352438D01*
X39238095Y-42352438D02*
X39285714Y-42400057D01*
X39285714Y-42400057D02*
X39333333Y-42495295D01*
X39333333Y-42495295D02*
X39333333Y-42638152D01*
X39333333Y-42638152D02*
X39285714Y-42733390D01*
X39285714Y-42733390D02*
X39238095Y-42781009D01*
X39238095Y-42781009D02*
X39142857Y-42828628D01*
X39142857Y-42828628D02*
X38761905Y-42828628D01*
X39904762Y-42733390D02*
X39809524Y-42685771D01*
X39809524Y-42685771D02*
X39761905Y-42638152D01*
X39761905Y-42638152D02*
X39714286Y-42542914D01*
X39714286Y-42542914D02*
X39714286Y-42495295D01*
X39714286Y-42495295D02*
X39761905Y-42400057D01*
X39761905Y-42400057D02*
X39809524Y-42352438D01*
X39809524Y-42352438D02*
X39904762Y-42304819D01*
X39904762Y-42304819D02*
X40095238Y-42304819D01*
X40095238Y-42304819D02*
X40190476Y-42352438D01*
X40190476Y-42352438D02*
X40238095Y-42400057D01*
X40238095Y-42400057D02*
X40285714Y-42495295D01*
X40285714Y-42495295D02*
X40285714Y-42542914D01*
X40285714Y-42542914D02*
X40238095Y-42638152D01*
X40238095Y-42638152D02*
X40190476Y-42685771D01*
X40190476Y-42685771D02*
X40095238Y-42733390D01*
X40095238Y-42733390D02*
X39904762Y-42733390D01*
X39904762Y-42733390D02*
X39809524Y-42781009D01*
X39809524Y-42781009D02*
X39761905Y-42828628D01*
X39761905Y-42828628D02*
X39714286Y-42923866D01*
X39714286Y-42923866D02*
X39714286Y-43114342D01*
X39714286Y-43114342D02*
X39761905Y-43209580D01*
X39761905Y-43209580D02*
X39809524Y-43257200D01*
X39809524Y-43257200D02*
X39904762Y-43304819D01*
X39904762Y-43304819D02*
X40095238Y-43304819D01*
X40095238Y-43304819D02*
X40190476Y-43257200D01*
X40190476Y-43257200D02*
X40238095Y-43209580D01*
X40238095Y-43209580D02*
X40285714Y-43114342D01*
X40285714Y-43114342D02*
X40285714Y-42923866D01*
X40285714Y-42923866D02*
X40238095Y-42828628D01*
X40238095Y-42828628D02*
X40190476Y-42781009D01*
X40190476Y-42781009D02*
X40095238Y-42733390D01*
X31428571Y-47050057D02*
X31333333Y-47002438D01*
X31333333Y-47002438D02*
X31238095Y-46907200D01*
X31238095Y-46907200D02*
X31095238Y-46764342D01*
X31095238Y-46764342D02*
X31000000Y-46716723D01*
X31000000Y-46716723D02*
X30904762Y-46716723D01*
X30952381Y-46954819D02*
X30857143Y-46907200D01*
X30857143Y-46907200D02*
X30761905Y-46811961D01*
X30761905Y-46811961D02*
X30714286Y-46621485D01*
X30714286Y-46621485D02*
X30714286Y-46288152D01*
X30714286Y-46288152D02*
X30761905Y-46097676D01*
X30761905Y-46097676D02*
X30857143Y-46002438D01*
X30857143Y-46002438D02*
X30952381Y-45954819D01*
X30952381Y-45954819D02*
X31142857Y-45954819D01*
X31142857Y-45954819D02*
X31238095Y-46002438D01*
X31238095Y-46002438D02*
X31333333Y-46097676D01*
X31333333Y-46097676D02*
X31380952Y-46288152D01*
X31380952Y-46288152D02*
X31380952Y-46621485D01*
X31380952Y-46621485D02*
X31333333Y-46811961D01*
X31333333Y-46811961D02*
X31238095Y-46907200D01*
X31238095Y-46907200D02*
X31142857Y-46954819D01*
X31142857Y-46954819D02*
X30952381Y-46954819D01*
X32333333Y-46954819D02*
X31761905Y-46954819D01*
X32047619Y-46954819D02*
X32047619Y-45954819D01*
X32047619Y-45954819D02*
X31952381Y-46097676D01*
X31952381Y-46097676D02*
X31857143Y-46192914D01*
X31857143Y-46192914D02*
X31761905Y-46240533D01*
X32809524Y-46954819D02*
X33000000Y-46954819D01*
X33000000Y-46954819D02*
X33095238Y-46907200D01*
X33095238Y-46907200D02*
X33142857Y-46859580D01*
X33142857Y-46859580D02*
X33238095Y-46716723D01*
X33238095Y-46716723D02*
X33285714Y-46526247D01*
X33285714Y-46526247D02*
X33285714Y-46145295D01*
X33285714Y-46145295D02*
X33238095Y-46050057D01*
X33238095Y-46050057D02*
X33190476Y-46002438D01*
X33190476Y-46002438D02*
X33095238Y-45954819D01*
X33095238Y-45954819D02*
X32904762Y-45954819D01*
X32904762Y-45954819D02*
X32809524Y-46002438D01*
X32809524Y-46002438D02*
X32761905Y-46050057D01*
X32761905Y-46050057D02*
X32714286Y-46145295D01*
X32714286Y-46145295D02*
X32714286Y-46383390D01*
X32714286Y-46383390D02*
X32761905Y-46478628D01*
X32761905Y-46478628D02*
X32809524Y-46526247D01*
X32809524Y-46526247D02*
X32904762Y-46573866D01*
X32904762Y-46573866D02*
X33095238Y-46573866D01*
X33095238Y-46573866D02*
X33190476Y-46526247D01*
X33190476Y-46526247D02*
X33238095Y-46478628D01*
X33238095Y-46478628D02*
X33285714Y-46383390D01*
X47566071Y-42200057D02*
X47470833Y-42152438D01*
X47470833Y-42152438D02*
X47375595Y-42057200D01*
X47375595Y-42057200D02*
X47232738Y-41914342D01*
X47232738Y-41914342D02*
X47137500Y-41866723D01*
X47137500Y-41866723D02*
X47042262Y-41866723D01*
X47089881Y-42104819D02*
X46994643Y-42057200D01*
X46994643Y-42057200D02*
X46899405Y-41961961D01*
X46899405Y-41961961D02*
X46851786Y-41771485D01*
X46851786Y-41771485D02*
X46851786Y-41438152D01*
X46851786Y-41438152D02*
X46899405Y-41247676D01*
X46899405Y-41247676D02*
X46994643Y-41152438D01*
X46994643Y-41152438D02*
X47089881Y-41104819D01*
X47089881Y-41104819D02*
X47280357Y-41104819D01*
X47280357Y-41104819D02*
X47375595Y-41152438D01*
X47375595Y-41152438D02*
X47470833Y-41247676D01*
X47470833Y-41247676D02*
X47518452Y-41438152D01*
X47518452Y-41438152D02*
X47518452Y-41771485D01*
X47518452Y-41771485D02*
X47470833Y-41961961D01*
X47470833Y-41961961D02*
X47375595Y-42057200D01*
X47375595Y-42057200D02*
X47280357Y-42104819D01*
X47280357Y-42104819D02*
X47089881Y-42104819D01*
X47899405Y-41200057D02*
X47947024Y-41152438D01*
X47947024Y-41152438D02*
X48042262Y-41104819D01*
X48042262Y-41104819D02*
X48280357Y-41104819D01*
X48280357Y-41104819D02*
X48375595Y-41152438D01*
X48375595Y-41152438D02*
X48423214Y-41200057D01*
X48423214Y-41200057D02*
X48470833Y-41295295D01*
X48470833Y-41295295D02*
X48470833Y-41390533D01*
X48470833Y-41390533D02*
X48423214Y-41533390D01*
X48423214Y-41533390D02*
X47851786Y-42104819D01*
X47851786Y-42104819D02*
X48470833Y-42104819D01*
X49089881Y-41104819D02*
X49185119Y-41104819D01*
X49185119Y-41104819D02*
X49280357Y-41152438D01*
X49280357Y-41152438D02*
X49327976Y-41200057D01*
X49327976Y-41200057D02*
X49375595Y-41295295D01*
X49375595Y-41295295D02*
X49423214Y-41485771D01*
X49423214Y-41485771D02*
X49423214Y-41723866D01*
X49423214Y-41723866D02*
X49375595Y-41914342D01*
X49375595Y-41914342D02*
X49327976Y-42009580D01*
X49327976Y-42009580D02*
X49280357Y-42057200D01*
X49280357Y-42057200D02*
X49185119Y-42104819D01*
X49185119Y-42104819D02*
X49089881Y-42104819D01*
X49089881Y-42104819D02*
X48994643Y-42057200D01*
X48994643Y-42057200D02*
X48947024Y-42009580D01*
X48947024Y-42009580D02*
X48899405Y-41914342D01*
X48899405Y-41914342D02*
X48851786Y-41723866D01*
X48851786Y-41723866D02*
X48851786Y-41485771D01*
X48851786Y-41485771D02*
X48899405Y-41295295D01*
X48899405Y-41295295D02*
X48947024Y-41200057D01*
X48947024Y-41200057D02*
X48994643Y-41152438D01*
X48994643Y-41152438D02*
X49089881Y-41104819D01*
X32791071Y-54150057D02*
X32695833Y-54102438D01*
X32695833Y-54102438D02*
X32600595Y-54007200D01*
X32600595Y-54007200D02*
X32457738Y-53864342D01*
X32457738Y-53864342D02*
X32362500Y-53816723D01*
X32362500Y-53816723D02*
X32267262Y-53816723D01*
X32314881Y-54054819D02*
X32219643Y-54007200D01*
X32219643Y-54007200D02*
X32124405Y-53911961D01*
X32124405Y-53911961D02*
X32076786Y-53721485D01*
X32076786Y-53721485D02*
X32076786Y-53388152D01*
X32076786Y-53388152D02*
X32124405Y-53197676D01*
X32124405Y-53197676D02*
X32219643Y-53102438D01*
X32219643Y-53102438D02*
X32314881Y-53054819D01*
X32314881Y-53054819D02*
X32505357Y-53054819D01*
X32505357Y-53054819D02*
X32600595Y-53102438D01*
X32600595Y-53102438D02*
X32695833Y-53197676D01*
X32695833Y-53197676D02*
X32743452Y-53388152D01*
X32743452Y-53388152D02*
X32743452Y-53721485D01*
X32743452Y-53721485D02*
X32695833Y-53911961D01*
X32695833Y-53911961D02*
X32600595Y-54007200D01*
X32600595Y-54007200D02*
X32505357Y-54054819D01*
X32505357Y-54054819D02*
X32314881Y-54054819D01*
X33695833Y-54054819D02*
X33124405Y-54054819D01*
X33410119Y-54054819D02*
X33410119Y-53054819D01*
X33410119Y-53054819D02*
X33314881Y-53197676D01*
X33314881Y-53197676D02*
X33219643Y-53292914D01*
X33219643Y-53292914D02*
X33124405Y-53340533D01*
X34267262Y-53483390D02*
X34172024Y-53435771D01*
X34172024Y-53435771D02*
X34124405Y-53388152D01*
X34124405Y-53388152D02*
X34076786Y-53292914D01*
X34076786Y-53292914D02*
X34076786Y-53245295D01*
X34076786Y-53245295D02*
X34124405Y-53150057D01*
X34124405Y-53150057D02*
X34172024Y-53102438D01*
X34172024Y-53102438D02*
X34267262Y-53054819D01*
X34267262Y-53054819D02*
X34457738Y-53054819D01*
X34457738Y-53054819D02*
X34552976Y-53102438D01*
X34552976Y-53102438D02*
X34600595Y-53150057D01*
X34600595Y-53150057D02*
X34648214Y-53245295D01*
X34648214Y-53245295D02*
X34648214Y-53292914D01*
X34648214Y-53292914D02*
X34600595Y-53388152D01*
X34600595Y-53388152D02*
X34552976Y-53435771D01*
X34552976Y-53435771D02*
X34457738Y-53483390D01*
X34457738Y-53483390D02*
X34267262Y-53483390D01*
X34267262Y-53483390D02*
X34172024Y-53531009D01*
X34172024Y-53531009D02*
X34124405Y-53578628D01*
X34124405Y-53578628D02*
X34076786Y-53673866D01*
X34076786Y-53673866D02*
X34076786Y-53864342D01*
X34076786Y-53864342D02*
X34124405Y-53959580D01*
X34124405Y-53959580D02*
X34172024Y-54007200D01*
X34172024Y-54007200D02*
X34267262Y-54054819D01*
X34267262Y-54054819D02*
X34457738Y-54054819D01*
X34457738Y-54054819D02*
X34552976Y-54007200D01*
X34552976Y-54007200D02*
X34600595Y-53959580D01*
X34600595Y-53959580D02*
X34648214Y-53864342D01*
X34648214Y-53864342D02*
X34648214Y-53673866D01*
X34648214Y-53673866D02*
X34600595Y-53578628D01*
X34600595Y-53578628D02*
X34552976Y-53531009D01*
X34552976Y-53531009D02*
X34457738Y-53483390D01*
X58928571Y-54150057D02*
X58833333Y-54102438D01*
X58833333Y-54102438D02*
X58738095Y-54007200D01*
X58738095Y-54007200D02*
X58595238Y-53864342D01*
X58595238Y-53864342D02*
X58500000Y-53816723D01*
X58500000Y-53816723D02*
X58404762Y-53816723D01*
X58452381Y-54054819D02*
X58357143Y-54007200D01*
X58357143Y-54007200D02*
X58261905Y-53911961D01*
X58261905Y-53911961D02*
X58214286Y-53721485D01*
X58214286Y-53721485D02*
X58214286Y-53388152D01*
X58214286Y-53388152D02*
X58261905Y-53197676D01*
X58261905Y-53197676D02*
X58357143Y-53102438D01*
X58357143Y-53102438D02*
X58452381Y-53054819D01*
X58452381Y-53054819D02*
X58642857Y-53054819D01*
X58642857Y-53054819D02*
X58738095Y-53102438D01*
X58738095Y-53102438D02*
X58833333Y-53197676D01*
X58833333Y-53197676D02*
X58880952Y-53388152D01*
X58880952Y-53388152D02*
X58880952Y-53721485D01*
X58880952Y-53721485D02*
X58833333Y-53911961D01*
X58833333Y-53911961D02*
X58738095Y-54007200D01*
X58738095Y-54007200D02*
X58642857Y-54054819D01*
X58642857Y-54054819D02*
X58452381Y-54054819D01*
X59261905Y-53150057D02*
X59309524Y-53102438D01*
X59309524Y-53102438D02*
X59404762Y-53054819D01*
X59404762Y-53054819D02*
X59642857Y-53054819D01*
X59642857Y-53054819D02*
X59738095Y-53102438D01*
X59738095Y-53102438D02*
X59785714Y-53150057D01*
X59785714Y-53150057D02*
X59833333Y-53245295D01*
X59833333Y-53245295D02*
X59833333Y-53340533D01*
X59833333Y-53340533D02*
X59785714Y-53483390D01*
X59785714Y-53483390D02*
X59214286Y-54054819D01*
X59214286Y-54054819D02*
X59833333Y-54054819D01*
X60214286Y-53150057D02*
X60261905Y-53102438D01*
X60261905Y-53102438D02*
X60357143Y-53054819D01*
X60357143Y-53054819D02*
X60595238Y-53054819D01*
X60595238Y-53054819D02*
X60690476Y-53102438D01*
X60690476Y-53102438D02*
X60738095Y-53150057D01*
X60738095Y-53150057D02*
X60785714Y-53245295D01*
X60785714Y-53245295D02*
X60785714Y-53340533D01*
X60785714Y-53340533D02*
X60738095Y-53483390D01*
X60738095Y-53483390D02*
X60166667Y-54054819D01*
X60166667Y-54054819D02*
X60785714Y-54054819D01*
X42291071Y-54150057D02*
X42195833Y-54102438D01*
X42195833Y-54102438D02*
X42100595Y-54007200D01*
X42100595Y-54007200D02*
X41957738Y-53864342D01*
X41957738Y-53864342D02*
X41862500Y-53816723D01*
X41862500Y-53816723D02*
X41767262Y-53816723D01*
X41814881Y-54054819D02*
X41719643Y-54007200D01*
X41719643Y-54007200D02*
X41624405Y-53911961D01*
X41624405Y-53911961D02*
X41576786Y-53721485D01*
X41576786Y-53721485D02*
X41576786Y-53388152D01*
X41576786Y-53388152D02*
X41624405Y-53197676D01*
X41624405Y-53197676D02*
X41719643Y-53102438D01*
X41719643Y-53102438D02*
X41814881Y-53054819D01*
X41814881Y-53054819D02*
X42005357Y-53054819D01*
X42005357Y-53054819D02*
X42100595Y-53102438D01*
X42100595Y-53102438D02*
X42195833Y-53197676D01*
X42195833Y-53197676D02*
X42243452Y-53388152D01*
X42243452Y-53388152D02*
X42243452Y-53721485D01*
X42243452Y-53721485D02*
X42195833Y-53911961D01*
X42195833Y-53911961D02*
X42100595Y-54007200D01*
X42100595Y-54007200D02*
X42005357Y-54054819D01*
X42005357Y-54054819D02*
X41814881Y-54054819D01*
X42624405Y-53150057D02*
X42672024Y-53102438D01*
X42672024Y-53102438D02*
X42767262Y-53054819D01*
X42767262Y-53054819D02*
X43005357Y-53054819D01*
X43005357Y-53054819D02*
X43100595Y-53102438D01*
X43100595Y-53102438D02*
X43148214Y-53150057D01*
X43148214Y-53150057D02*
X43195833Y-53245295D01*
X43195833Y-53245295D02*
X43195833Y-53340533D01*
X43195833Y-53340533D02*
X43148214Y-53483390D01*
X43148214Y-53483390D02*
X42576786Y-54054819D01*
X42576786Y-54054819D02*
X43195833Y-54054819D01*
X44148214Y-54054819D02*
X43576786Y-54054819D01*
X43862500Y-54054819D02*
X43862500Y-53054819D01*
X43862500Y-53054819D02*
X43767262Y-53197676D01*
X43767262Y-53197676D02*
X43672024Y-53292914D01*
X43672024Y-53292914D02*
X43576786Y-53340533D01*
X71428571Y-42950057D02*
X71333333Y-42902438D01*
X71333333Y-42902438D02*
X71238095Y-42807200D01*
X71238095Y-42807200D02*
X71095238Y-42664342D01*
X71095238Y-42664342D02*
X71000000Y-42616723D01*
X71000000Y-42616723D02*
X70904762Y-42616723D01*
X70952381Y-42854819D02*
X70857143Y-42807200D01*
X70857143Y-42807200D02*
X70761905Y-42711961D01*
X70761905Y-42711961D02*
X70714286Y-42521485D01*
X70714286Y-42521485D02*
X70714286Y-42188152D01*
X70714286Y-42188152D02*
X70761905Y-41997676D01*
X70761905Y-41997676D02*
X70857143Y-41902438D01*
X70857143Y-41902438D02*
X70952381Y-41854819D01*
X70952381Y-41854819D02*
X71142857Y-41854819D01*
X71142857Y-41854819D02*
X71238095Y-41902438D01*
X71238095Y-41902438D02*
X71333333Y-41997676D01*
X71333333Y-41997676D02*
X71380952Y-42188152D01*
X71380952Y-42188152D02*
X71380952Y-42521485D01*
X71380952Y-42521485D02*
X71333333Y-42711961D01*
X71333333Y-42711961D02*
X71238095Y-42807200D01*
X71238095Y-42807200D02*
X71142857Y-42854819D01*
X71142857Y-42854819D02*
X70952381Y-42854819D01*
X71761905Y-41950057D02*
X71809524Y-41902438D01*
X71809524Y-41902438D02*
X71904762Y-41854819D01*
X71904762Y-41854819D02*
X72142857Y-41854819D01*
X72142857Y-41854819D02*
X72238095Y-41902438D01*
X72238095Y-41902438D02*
X72285714Y-41950057D01*
X72285714Y-41950057D02*
X72333333Y-42045295D01*
X72333333Y-42045295D02*
X72333333Y-42140533D01*
X72333333Y-42140533D02*
X72285714Y-42283390D01*
X72285714Y-42283390D02*
X71714286Y-42854819D01*
X71714286Y-42854819D02*
X72333333Y-42854819D01*
X72666667Y-41854819D02*
X73285714Y-41854819D01*
X73285714Y-41854819D02*
X72952381Y-42235771D01*
X72952381Y-42235771D02*
X73095238Y-42235771D01*
X73095238Y-42235771D02*
X73190476Y-42283390D01*
X73190476Y-42283390D02*
X73238095Y-42331009D01*
X73238095Y-42331009D02*
X73285714Y-42426247D01*
X73285714Y-42426247D02*
X73285714Y-42664342D01*
X73285714Y-42664342D02*
X73238095Y-42759580D01*
X73238095Y-42759580D02*
X73190476Y-42807200D01*
X73190476Y-42807200D02*
X73095238Y-42854819D01*
X73095238Y-42854819D02*
X72809524Y-42854819D01*
X72809524Y-42854819D02*
X72714286Y-42807200D01*
X72714286Y-42807200D02*
X72666667Y-42759580D01*
X29104819Y-56666666D02*
X28628628Y-56999999D01*
X29104819Y-57238094D02*
X28104819Y-57238094D01*
X28104819Y-57238094D02*
X28104819Y-56857142D01*
X28104819Y-56857142D02*
X28152438Y-56761904D01*
X28152438Y-56761904D02*
X28200057Y-56714285D01*
X28200057Y-56714285D02*
X28295295Y-56666666D01*
X28295295Y-56666666D02*
X28438152Y-56666666D01*
X28438152Y-56666666D02*
X28533390Y-56714285D01*
X28533390Y-56714285D02*
X28581009Y-56761904D01*
X28581009Y-56761904D02*
X28628628Y-56857142D01*
X28628628Y-56857142D02*
X28628628Y-57238094D01*
X28104819Y-56333332D02*
X28104819Y-55666666D01*
X28104819Y-55666666D02*
X29104819Y-56095237D01*
X67874819Y-33333333D02*
X68589104Y-33333333D01*
X68589104Y-33333333D02*
X68731961Y-33380952D01*
X68731961Y-33380952D02*
X68827200Y-33476190D01*
X68827200Y-33476190D02*
X68874819Y-33619047D01*
X68874819Y-33619047D02*
X68874819Y-33714285D01*
X68874819Y-32333333D02*
X68874819Y-32904761D01*
X68874819Y-32619047D02*
X67874819Y-32619047D01*
X67874819Y-32619047D02*
X68017676Y-32714285D01*
X68017676Y-32714285D02*
X68112914Y-32809523D01*
X68112914Y-32809523D02*
X68160533Y-32904761D01*
D11*
%TO.C,G\u002A\u002A\u002A*%
G36*
X22177953Y-31834609D02*
G01*
X22198680Y-31843079D01*
X22199144Y-31844899D01*
X22193247Y-31864920D01*
X22176858Y-31915438D01*
X22151365Y-31992306D01*
X22118155Y-32091377D01*
X22078619Y-32208504D01*
X22034143Y-32339539D01*
X22001438Y-32435491D01*
X21804491Y-33012347D01*
X21736854Y-33018019D01*
X21669217Y-33023691D01*
X21870465Y-32434095D01*
X21917974Y-32294718D01*
X21961486Y-32166705D01*
X21999637Y-32054093D01*
X22031067Y-31960919D01*
X22054411Y-31891218D01*
X22068307Y-31849029D01*
X22071713Y-31837832D01*
X22087837Y-31833422D01*
X22127478Y-31831221D01*
X22135808Y-31831165D01*
X22177953Y-31834609D01*
G37*
G36*
X20222109Y-31966063D02*
G01*
X20222109Y-32100962D01*
X20400660Y-32109634D01*
X20516730Y-32119355D01*
X20603167Y-32137284D01*
X20666523Y-32165961D01*
X20713349Y-32207928D01*
X20735612Y-32239516D01*
X20750885Y-32269573D01*
X20761176Y-32305503D01*
X20767411Y-32354867D01*
X20770518Y-32425229D01*
X20771423Y-32524149D01*
X20771428Y-32531633D01*
X20771496Y-32765123D01*
X20707401Y-32765123D01*
X20643306Y-32765123D01*
X20643306Y-32555546D01*
X20642745Y-32463722D01*
X20640184Y-32400607D01*
X20634310Y-32358291D01*
X20623807Y-32328864D01*
X20607360Y-32304416D01*
X20600130Y-32295773D01*
X20576744Y-32271725D01*
X20550768Y-32256264D01*
X20513203Y-32246903D01*
X20455048Y-32241153D01*
X20389531Y-32237573D01*
X20222109Y-32229569D01*
X20222109Y-32497346D01*
X20222109Y-32765123D01*
X20158014Y-32765123D01*
X20093919Y-32765123D01*
X20093919Y-32298144D01*
X20093919Y-31831165D01*
X20158014Y-31831165D01*
X20222109Y-31831165D01*
X20222109Y-31966063D01*
G37*
G36*
X21311727Y-32109938D02*
G01*
X21413251Y-32117613D01*
X21484997Y-32132048D01*
X21533568Y-32155769D01*
X21565566Y-32191302D01*
X21575961Y-32211032D01*
X21593127Y-32278035D01*
X21590784Y-32349451D01*
X21571332Y-32413415D01*
X21537169Y-32458058D01*
X21524423Y-32465904D01*
X21494979Y-32472364D01*
X21437573Y-32479156D01*
X21360850Y-32485421D01*
X21284451Y-32489802D01*
X21183876Y-32495920D01*
X21116176Y-32504583D01*
X21077605Y-32517748D01*
X21064416Y-32537374D01*
X21072863Y-32565420D01*
X21089930Y-32591505D01*
X21105118Y-32607123D01*
X21128324Y-32617942D01*
X21166326Y-32625123D01*
X21225905Y-32629824D01*
X21313837Y-32633205D01*
X21337683Y-32633888D01*
X21558951Y-32640000D01*
X21558951Y-32702561D01*
X21558951Y-32765123D01*
X21334618Y-32764406D01*
X21209072Y-32761536D01*
X21117652Y-32753702D01*
X21058170Y-32740698D01*
X21050083Y-32737533D01*
X20999653Y-32703371D01*
X20965078Y-32649008D01*
X20944638Y-32569817D01*
X20936612Y-32461171D01*
X20936341Y-32431501D01*
X20939902Y-32359474D01*
X21064860Y-32359474D01*
X21076712Y-32386656D01*
X21103575Y-32394937D01*
X21156319Y-32399158D01*
X21224465Y-32399678D01*
X21297536Y-32396855D01*
X21365053Y-32391049D01*
X21416539Y-32382618D01*
X21439118Y-32374245D01*
X21463363Y-32340788D01*
X21461131Y-32303181D01*
X21446322Y-32271351D01*
X21416739Y-32250737D01*
X21365928Y-32239212D01*
X21287435Y-32234646D01*
X21252210Y-32234299D01*
X21181303Y-32237007D01*
X21135615Y-32247292D01*
X21104069Y-32267819D01*
X21101129Y-32270674D01*
X21072200Y-32314606D01*
X21064860Y-32359474D01*
X20939902Y-32359474D01*
X20941991Y-32317225D01*
X20961514Y-32231604D01*
X20998841Y-32171269D01*
X21057902Y-32132855D01*
X21142629Y-32112993D01*
X21256952Y-32108316D01*
X21311727Y-32109938D01*
G37*
G36*
X22437971Y-31966063D02*
G01*
X22437971Y-32100962D01*
X22616522Y-32109634D01*
X22732592Y-32119355D01*
X22819029Y-32137284D01*
X22882385Y-32165961D01*
X22929211Y-32207928D01*
X22951474Y-32239516D01*
X22966747Y-32269573D01*
X22977037Y-32305503D01*
X22983272Y-32354867D01*
X22986379Y-32425229D01*
X22987285Y-32524149D01*
X22987290Y-32531633D01*
X22987358Y-32765123D01*
X22923263Y-32765123D01*
X22859168Y-32765123D01*
X22859168Y-32555546D01*
X22858606Y-32463722D01*
X22856046Y-32400607D01*
X22850171Y-32358291D01*
X22839668Y-32328864D01*
X22823222Y-32304416D01*
X22815991Y-32295773D01*
X22792605Y-32271725D01*
X22766630Y-32256264D01*
X22729065Y-32246903D01*
X22670910Y-32241153D01*
X22605393Y-32237573D01*
X22437971Y-32229569D01*
X22437971Y-32497346D01*
X22437971Y-32765123D01*
X22373876Y-32765123D01*
X22309781Y-32765123D01*
X22309781Y-32298144D01*
X22309781Y-31831165D01*
X22373876Y-31831165D01*
X22437971Y-31831165D01*
X22437971Y-31966063D01*
G37*
G36*
X23298677Y-32435491D02*
G01*
X23298677Y-32765123D01*
X23234582Y-32765123D01*
X23170487Y-32765123D01*
X23170487Y-32435491D01*
X23170487Y-32105858D01*
X23234582Y-32105858D01*
X23298677Y-32105858D01*
X23298677Y-32435491D01*
G37*
G36*
X23801069Y-32107100D02*
G01*
X23930758Y-32108640D01*
X23956139Y-32109007D01*
X24105085Y-32111746D01*
X24222133Y-32115791D01*
X24312009Y-32122225D01*
X24379442Y-32132128D01*
X24429157Y-32146583D01*
X24465882Y-32166672D01*
X24494344Y-32193477D01*
X24519270Y-32228079D01*
X24526383Y-32239516D01*
X24541657Y-32269573D01*
X24551947Y-32305503D01*
X24558182Y-32354867D01*
X24561289Y-32425229D01*
X24562195Y-32524149D01*
X24562199Y-32531633D01*
X24562268Y-32765123D01*
X24498173Y-32765123D01*
X24434078Y-32765123D01*
X24434078Y-32555546D01*
X24433508Y-32463664D01*
X24430930Y-32400504D01*
X24425039Y-32358166D01*
X24414533Y-32328754D01*
X24398107Y-32304369D01*
X24391264Y-32296195D01*
X24364510Y-32269416D01*
X24334727Y-32254193D01*
X24290697Y-32247124D01*
X24221870Y-32244814D01*
X24095289Y-32243205D01*
X24090208Y-32504164D01*
X24085127Y-32765123D01*
X24021534Y-32765123D01*
X23957942Y-32765123D01*
X23957942Y-32499586D01*
X23957942Y-32234049D01*
X23793629Y-32234049D01*
X23629315Y-32234049D01*
X23624234Y-32495008D01*
X23619153Y-32755966D01*
X23550480Y-32761650D01*
X23481806Y-32767334D01*
X23481806Y-32465374D01*
X23482297Y-32350436D01*
X23484105Y-32266565D01*
X23487737Y-32208210D01*
X23493697Y-32169820D01*
X23502490Y-32145846D01*
X23512051Y-32133169D01*
X23525480Y-32123343D01*
X23546541Y-32116050D01*
X23579934Y-32111035D01*
X23630354Y-32108042D01*
X23702500Y-32106816D01*
X23801069Y-32107100D01*
G37*
G36*
X23275620Y-31870008D02*
G01*
X23293858Y-31883701D01*
X23298534Y-31919427D01*
X23298677Y-31941042D01*
X23296737Y-31987943D01*
X23284756Y-32008785D01*
X23253495Y-32014130D01*
X23234582Y-32014294D01*
X23193544Y-32012076D01*
X23175307Y-31998384D01*
X23170630Y-31962657D01*
X23170487Y-31941042D01*
X23172428Y-31894142D01*
X23184408Y-31873299D01*
X23215669Y-31867954D01*
X23234582Y-31867791D01*
X23275620Y-31870008D01*
G37*
G36*
X25378142Y-30899953D02*
G01*
X25384482Y-30900146D01*
X25473279Y-30903360D01*
X25533740Y-30907751D01*
X25574147Y-30915257D01*
X25602782Y-30927811D01*
X25627927Y-30947350D01*
X25641692Y-30960261D01*
X25694913Y-31033305D01*
X25725392Y-31122432D01*
X25733958Y-31219246D01*
X25721439Y-31315350D01*
X25688665Y-31402346D01*
X25636465Y-31471837D01*
X25587791Y-31506082D01*
X25541178Y-31523115D01*
X25479079Y-31533279D01*
X25392925Y-31537707D01*
X25345145Y-31538130D01*
X25166594Y-31538158D01*
X25166594Y-31666349D01*
X25166594Y-31794539D01*
X25102499Y-31794539D01*
X25038403Y-31794539D01*
X25038403Y-31436849D01*
X25038567Y-31409968D01*
X25162950Y-31409968D01*
X25328567Y-31409968D01*
X25410170Y-31408928D01*
X25464435Y-31404605D01*
X25500620Y-31395194D01*
X25527982Y-31378891D01*
X25539952Y-31368764D01*
X25580345Y-31308799D01*
X25589418Y-31263465D01*
X25590680Y-31165993D01*
X25578210Y-31098741D01*
X25547403Y-31056457D01*
X25493655Y-31033890D01*
X25412364Y-31025791D01*
X25380692Y-31025397D01*
X25294696Y-31027592D01*
X25236762Y-31038236D01*
X25200997Y-31063414D01*
X25181508Y-31109213D01*
X25172401Y-31181719D01*
X25169350Y-31243665D01*
X25162950Y-31409968D01*
X25038567Y-31409968D01*
X25039355Y-31281049D01*
X25043830Y-31158086D01*
X25054262Y-31064189D01*
X25073082Y-30995586D01*
X25102723Y-30948504D01*
X25145618Y-30919172D01*
X25204198Y-30903817D01*
X25280895Y-30898668D01*
X25378142Y-30899953D01*
G37*
G36*
X33895336Y-30902762D02*
G01*
X33947805Y-30914805D01*
X33985571Y-30936932D01*
X34015885Y-30971324D01*
X34030952Y-30994518D01*
X34044446Y-31020450D01*
X34054074Y-31051176D01*
X34060470Y-31093037D01*
X34064267Y-31152374D01*
X34066098Y-31235526D01*
X34066597Y-31348836D01*
X34066597Y-31351360D01*
X34065712Y-31489819D01*
X34060496Y-31595951D01*
X34047212Y-31674054D01*
X34022127Y-31728422D01*
X33981504Y-31763351D01*
X33921609Y-31783136D01*
X33838707Y-31792073D01*
X33729063Y-31794457D01*
X33681233Y-31794539D01*
X33444027Y-31794539D01*
X33444027Y-31730444D01*
X33444027Y-31666349D01*
X33660944Y-31666349D01*
X33755881Y-31665636D01*
X33821138Y-31662873D01*
X33863647Y-31657121D01*
X33890336Y-31647442D01*
X33908135Y-31632895D01*
X33908168Y-31632859D01*
X33932308Y-31590394D01*
X33938476Y-31559607D01*
X33936130Y-31540088D01*
X33924214Y-31528273D01*
X33895406Y-31522231D01*
X33842386Y-31520031D01*
X33787394Y-31519743D01*
X33672090Y-31515846D01*
X33585292Y-31502868D01*
X33519533Y-31478610D01*
X33467343Y-31440874D01*
X33446772Y-31419452D01*
X33398205Y-31338198D01*
X33375637Y-31241816D01*
X33376893Y-31200202D01*
X33517279Y-31200202D01*
X33520540Y-31265725D01*
X33533189Y-31308979D01*
X33559521Y-31343963D01*
X33562229Y-31346705D01*
X33586964Y-31368289D01*
X33614554Y-31381612D01*
X33654184Y-31388633D01*
X33715033Y-31391313D01*
X33772827Y-31391655D01*
X33938476Y-31391655D01*
X33938476Y-31249227D01*
X33935927Y-31155350D01*
X33924708Y-31092023D01*
X33899457Y-31053319D01*
X33854814Y-31033314D01*
X33785417Y-31026079D01*
X33735995Y-31025397D01*
X33642587Y-31029166D01*
X33579659Y-31043481D01*
X33541564Y-31072854D01*
X33522657Y-31121797D01*
X33517293Y-31194824D01*
X33517279Y-31200202D01*
X33376893Y-31200202D01*
X33378691Y-31140592D01*
X33406991Y-31044812D01*
X33460162Y-30964762D01*
X33463521Y-30961302D01*
X33489089Y-30937074D01*
X33513953Y-30920999D01*
X33546358Y-30911094D01*
X33594547Y-30905374D01*
X33666764Y-30901853D01*
X33717290Y-30900211D01*
X33820915Y-30898624D01*
X33895336Y-30902762D01*
G37*
G36*
X39197257Y-30899732D02*
G01*
X39277768Y-30909990D01*
X39337869Y-30932001D01*
X39380337Y-30969785D01*
X39407950Y-31027365D01*
X39423483Y-31108760D01*
X39429714Y-31217992D01*
X39429420Y-31359082D01*
X39428991Y-31382897D01*
X39423191Y-31683927D01*
X39372466Y-31734655D01*
X39351570Y-31754424D01*
X39330588Y-31768399D01*
X39302903Y-31777760D01*
X39261894Y-31783692D01*
X39200943Y-31787378D01*
X39113431Y-31789999D01*
X39055306Y-31791332D01*
X38788870Y-31797282D01*
X38794711Y-31736394D01*
X38800552Y-31675505D01*
X39024050Y-31666349D01*
X39111756Y-31661384D01*
X39186374Y-31654589D01*
X39240122Y-31646851D01*
X39265218Y-31639055D01*
X39265400Y-31638879D01*
X39283104Y-31608112D01*
X39295155Y-31572337D01*
X39307058Y-31524107D01*
X39117764Y-31517100D01*
X39001188Y-31508891D01*
X38914290Y-31492362D01*
X38850561Y-31464820D01*
X38803489Y-31423577D01*
X38770575Y-31373628D01*
X38743901Y-31292803D01*
X38736286Y-31196131D01*
X38738197Y-31179738D01*
X38871929Y-31179738D01*
X38874945Y-31251437D01*
X38892909Y-31315628D01*
X38924804Y-31361403D01*
X38944317Y-31373452D01*
X38980066Y-31380796D01*
X39041331Y-31386638D01*
X39117007Y-31390042D01*
X39146215Y-31390494D01*
X39308750Y-31391655D01*
X39300447Y-31233475D01*
X39293601Y-31143654D01*
X39279971Y-31084218D01*
X39253060Y-31048928D01*
X39206369Y-31031545D01*
X39133401Y-31025829D01*
X39083740Y-31025397D01*
X39005921Y-31027341D01*
X38956016Y-31034254D01*
X38925465Y-31047761D01*
X38914817Y-31057444D01*
X38884880Y-31111437D01*
X38871929Y-31179738D01*
X38738197Y-31179738D01*
X38747612Y-31098971D01*
X38773262Y-31025045D01*
X38807194Y-30971474D01*
X38849476Y-30934698D01*
X38907106Y-30911923D01*
X38987081Y-30900358D01*
X39093558Y-30897207D01*
X39197257Y-30899732D01*
G37*
G36*
X20771496Y-30785795D02*
G01*
X20771496Y-30857513D01*
X20552108Y-30863625D01*
X20458815Y-30866614D01*
X20394537Y-30870499D01*
X20351671Y-30876883D01*
X20322611Y-30887367D01*
X20299755Y-30903553D01*
X20281992Y-30920514D01*
X20257068Y-30948116D01*
X20241989Y-30976157D01*
X20234305Y-31014578D01*
X20231561Y-31073317D01*
X20231266Y-31126118D01*
X20232135Y-31203062D01*
X20236377Y-31253331D01*
X20246445Y-31286864D01*
X20264790Y-31313601D01*
X20281992Y-31331722D01*
X20305201Y-31353270D01*
X20328876Y-31367908D01*
X20360620Y-31377237D01*
X20408037Y-31382860D01*
X20478732Y-31386377D01*
X20552108Y-31388610D01*
X20771496Y-31394722D01*
X20771496Y-31466440D01*
X20771496Y-31538158D01*
X20556320Y-31537756D01*
X20452515Y-31536193D01*
X20376879Y-31531297D01*
X20321030Y-31522078D01*
X20276586Y-31507547D01*
X20267892Y-31503717D01*
X20186386Y-31453552D01*
X20129054Y-31386617D01*
X20093543Y-31298231D01*
X20077501Y-31183718D01*
X20076008Y-31122128D01*
X20082018Y-31012997D01*
X20100161Y-30931039D01*
X20110048Y-30906363D01*
X20149891Y-30836122D01*
X20199416Y-30784348D01*
X20264188Y-30748663D01*
X20349773Y-30726690D01*
X20461737Y-30716052D01*
X20560310Y-30714078D01*
X20771496Y-30714078D01*
X20771496Y-30785795D01*
G37*
G36*
X23460021Y-30782751D02*
G01*
X23454337Y-30851424D01*
X23234582Y-30861164D01*
X23145799Y-30866219D01*
X23068337Y-30872700D01*
X23010745Y-30879756D01*
X22982102Y-30886274D01*
X22938074Y-30926750D01*
X22909128Y-30998078D01*
X22896340Y-31097266D01*
X22895794Y-31126118D01*
X22903004Y-31229281D01*
X22927349Y-31303497D01*
X22972898Y-31352644D01*
X23043720Y-31380601D01*
X23143886Y-31391244D01*
X23174424Y-31391655D01*
X23258345Y-31387916D01*
X23312111Y-31374274D01*
X23341653Y-31347092D01*
X23352902Y-31302733D01*
X23353616Y-31281778D01*
X23347196Y-31229463D01*
X23323987Y-31196257D01*
X23278067Y-31178393D01*
X23203514Y-31172105D01*
X23180847Y-31171900D01*
X23078923Y-31171900D01*
X23078923Y-31107805D01*
X23078923Y-31043710D01*
X23208022Y-31043710D01*
X23314677Y-31050921D01*
X23392194Y-31074002D01*
X23445404Y-31115125D01*
X23474093Y-31163372D01*
X23497182Y-31257314D01*
X23490924Y-31349211D01*
X23457516Y-31430567D01*
X23399155Y-31492885D01*
X23386766Y-31501063D01*
X23325326Y-31523993D01*
X23240733Y-31536843D01*
X23145065Y-31539540D01*
X23050401Y-31532014D01*
X22968820Y-31514191D01*
X22941576Y-31503717D01*
X22854945Y-31448110D01*
X22794126Y-31371310D01*
X22757677Y-31270562D01*
X22744158Y-31143111D01*
X22744008Y-31126118D01*
X22756311Y-30998625D01*
X22791758Y-30890796D01*
X22848149Y-30806493D01*
X22923290Y-30749580D01*
X22968004Y-30732377D01*
X23012459Y-30725103D01*
X23083237Y-30719207D01*
X23170041Y-30715353D01*
X23249422Y-30714180D01*
X23465705Y-30714078D01*
X23460021Y-30782751D01*
G37*
G36*
X24101027Y-30956724D02*
G01*
X24095289Y-31016240D01*
X23948786Y-31025397D01*
X23802282Y-31034553D01*
X23797187Y-31286356D01*
X23792092Y-31538158D01*
X23718068Y-31538158D01*
X23644044Y-31538158D01*
X23649912Y-31252649D01*
X23652851Y-31130434D01*
X23658395Y-31040032D01*
X23670249Y-30976649D01*
X23692118Y-30935489D01*
X23727705Y-30911757D01*
X23780717Y-30900658D01*
X23854856Y-30897395D01*
X23924505Y-30897207D01*
X24106766Y-30897207D01*
X24101027Y-30956724D01*
G37*
G36*
X24506873Y-30900401D02*
G01*
X24625469Y-30903595D01*
X24712503Y-30910075D01*
X24773004Y-30924699D01*
X24812002Y-30952325D01*
X24834526Y-30997810D01*
X24845606Y-31066010D01*
X24850271Y-31161785D01*
X24852065Y-31233774D01*
X24854610Y-31345804D01*
X24852793Y-31426360D01*
X24841904Y-31480589D01*
X24817234Y-31513643D01*
X24774071Y-31530670D01*
X24707706Y-31536820D01*
X24613427Y-31537241D01*
X24574695Y-31536997D01*
X24484782Y-31535350D01*
X24405722Y-31531730D01*
X24346162Y-31526675D01*
X24315044Y-31520846D01*
X24254146Y-31477659D01*
X24215830Y-31412366D01*
X24203803Y-31334253D01*
X24205331Y-31325573D01*
X24345625Y-31325573D01*
X24348952Y-31370044D01*
X24363938Y-31393966D01*
X24392193Y-31400810D01*
X24447388Y-31406166D01*
X24519847Y-31409247D01*
X24557690Y-31409688D01*
X24727084Y-31409968D01*
X24727084Y-31336076D01*
X24727084Y-31262183D01*
X24539377Y-31267402D01*
X24351669Y-31272621D01*
X24345625Y-31325573D01*
X24205331Y-31325573D01*
X24215036Y-31270459D01*
X24237132Y-31223833D01*
X24271447Y-31190932D01*
X24323669Y-31169670D01*
X24399486Y-31157962D01*
X24504587Y-31153725D01*
X24533889Y-31153587D01*
X24619705Y-31153269D01*
X24675401Y-31151368D01*
X24707485Y-31146467D01*
X24722462Y-31137146D01*
X24726838Y-31121987D01*
X24727084Y-31111468D01*
X24723348Y-31077326D01*
X24708529Y-31053499D01*
X24677209Y-31038192D01*
X24623973Y-31029614D01*
X24543404Y-31025971D01*
X24467041Y-31025397D01*
X24250949Y-31025397D01*
X24250949Y-30959918D01*
X24250949Y-30894438D01*
X24506873Y-30900401D01*
G37*
G36*
X25949471Y-30607673D02*
G01*
X26018144Y-30613357D01*
X26023492Y-30755282D01*
X26028841Y-30897207D01*
X26197465Y-30897235D01*
X26316171Y-30902060D01*
X26407174Y-30919181D01*
X26474124Y-30952640D01*
X26520674Y-31006477D01*
X26550475Y-31084731D01*
X26567178Y-31191443D01*
X26573992Y-31313825D01*
X26580454Y-31538158D01*
X26505319Y-31538158D01*
X26430184Y-31538158D01*
X26430184Y-31319733D01*
X26429875Y-31227082D01*
X26428042Y-31163836D01*
X26423326Y-31122775D01*
X26414368Y-31096677D01*
X26399809Y-31078323D01*
X26381932Y-31063352D01*
X26350620Y-31043742D01*
X26311669Y-31032137D01*
X26255112Y-31026654D01*
X26181007Y-31025397D01*
X26028334Y-31025397D01*
X26023239Y-31277199D01*
X26018144Y-31529002D01*
X25949471Y-31534686D01*
X25880797Y-31540369D01*
X25880797Y-31071179D01*
X25880797Y-30601989D01*
X25949471Y-30607673D01*
G37*
G36*
X26888007Y-31217682D02*
G01*
X26888007Y-31538158D01*
X26814755Y-31538158D01*
X26741504Y-31538158D01*
X26741504Y-31217682D01*
X26741504Y-30897207D01*
X26814755Y-30897207D01*
X26888007Y-30897207D01*
X26888007Y-31217682D01*
G37*
G36*
X27653731Y-30956724D02*
G01*
X27647992Y-31016240D01*
X27444682Y-31025397D01*
X27338563Y-31032462D01*
X27261902Y-31042566D01*
X27217843Y-31055254D01*
X27212090Y-31058942D01*
X27185735Y-31100916D01*
X27171938Y-31164260D01*
X27170280Y-31236996D01*
X27180342Y-31307146D01*
X27201705Y-31362732D01*
X27223553Y-31386822D01*
X27249784Y-31393299D01*
X27304144Y-31400022D01*
X27378157Y-31406111D01*
X27446551Y-31409968D01*
X27647992Y-31419124D01*
X27647992Y-31474063D01*
X27647992Y-31529002D01*
X27436341Y-31534131D01*
X27343544Y-31535798D01*
X27279031Y-31534736D01*
X27234499Y-31529827D01*
X27201640Y-31519953D01*
X27172150Y-31503995D01*
X27161648Y-31497140D01*
X27091681Y-31430559D01*
X27049611Y-31342108D01*
X27034598Y-31229964D01*
X27034539Y-31221672D01*
X27044810Y-31110610D01*
X27077503Y-31023548D01*
X27135338Y-30953614D01*
X27143303Y-30946712D01*
X27169383Y-30926114D01*
X27194751Y-30912200D01*
X27227013Y-30903663D01*
X27273775Y-30899192D01*
X27342644Y-30897476D01*
X27430803Y-30897207D01*
X27659470Y-30897207D01*
X27653731Y-30956724D01*
G37*
G36*
X28334726Y-30961302D02*
G01*
X28334726Y-31025397D01*
X28126087Y-31025397D01*
X28033816Y-31026134D01*
X27971862Y-31028916D01*
X27933934Y-31034602D01*
X27913743Y-31044050D01*
X27905917Y-31055446D01*
X27901121Y-31098957D01*
X27904506Y-31117381D01*
X27915015Y-31132840D01*
X27939401Y-31143353D01*
X27984490Y-31150384D01*
X28057110Y-31155399D01*
X28088500Y-31156871D01*
X28171189Y-31161306D01*
X28226345Y-31167467D01*
X28263058Y-31177690D01*
X28290415Y-31194311D01*
X28312285Y-31214395D01*
X28345135Y-31255407D01*
X28358852Y-31301181D01*
X28360366Y-31349435D01*
X28354406Y-31409359D01*
X28334475Y-31451279D01*
X28300560Y-31486357D01*
X28275698Y-31507506D01*
X28252044Y-31521938D01*
X28222270Y-31530935D01*
X28179046Y-31535781D01*
X28115044Y-31537760D01*
X28022937Y-31538156D01*
X28004805Y-31538158D01*
X27767026Y-31538158D01*
X27767026Y-31474627D01*
X27767026Y-31411095D01*
X27991359Y-31405953D01*
X28085108Y-31403571D01*
X28148451Y-31400619D01*
X28187598Y-31395752D01*
X28208762Y-31387627D01*
X28218154Y-31374900D01*
X28221986Y-31356228D01*
X28222010Y-31356055D01*
X28218642Y-31315064D01*
X28192359Y-31287221D01*
X28139280Y-31270759D01*
X28055526Y-31263915D01*
X28018498Y-31263465D01*
X27944529Y-31262474D01*
X27896503Y-31257577D01*
X27863755Y-31245891D01*
X27835616Y-31224530D01*
X27820556Y-31209935D01*
X27782050Y-31160456D01*
X27767861Y-31105088D01*
X27767026Y-31080336D01*
X27774748Y-31017895D01*
X27803726Y-30968754D01*
X27820556Y-30950737D01*
X27843685Y-30928616D01*
X27865677Y-30913624D01*
X27893883Y-30904373D01*
X27935655Y-30899477D01*
X27998341Y-30897551D01*
X28089293Y-30897207D01*
X28104406Y-30897207D01*
X28334726Y-30897207D01*
X28334726Y-30961302D01*
G37*
G36*
X29415028Y-30949168D02*
G01*
X29450432Y-30997030D01*
X29473635Y-31060663D01*
X29485657Y-31145670D01*
X29487522Y-31257657D01*
X29484674Y-31331153D01*
X29479594Y-31409351D01*
X29470186Y-31464874D01*
X29450901Y-31501566D01*
X29416186Y-31523269D01*
X29360490Y-31533826D01*
X29278264Y-31537081D01*
X29187355Y-31536997D01*
X29097532Y-31535264D01*
X29018239Y-31531419D01*
X28958307Y-31526037D01*
X28927277Y-31520000D01*
X28873913Y-31480486D01*
X28840285Y-31419421D01*
X28828225Y-31347205D01*
X28829856Y-31336716D01*
X28957365Y-31336716D01*
X28963950Y-31368879D01*
X28987286Y-31390428D01*
X29032745Y-31403199D01*
X29105700Y-31409030D01*
X29171626Y-31409968D01*
X29341936Y-31409968D01*
X29341936Y-31336716D01*
X29341936Y-31263465D01*
X29171626Y-31263465D01*
X29077550Y-31265716D01*
X29014520Y-31273694D01*
X28977163Y-31289236D01*
X28960109Y-31314177D01*
X28957365Y-31336716D01*
X28829856Y-31336716D01*
X28839569Y-31274240D01*
X28873332Y-31214125D01*
X28893827Y-31192059D01*
X28915274Y-31177183D01*
X28945232Y-31167803D01*
X28991261Y-31162220D01*
X29060920Y-31158740D01*
X29129712Y-31156590D01*
X29220469Y-31153633D01*
X29280806Y-31150118D01*
X29316921Y-31144683D01*
X29335010Y-31135963D01*
X29341272Y-31122595D01*
X29341936Y-31109892D01*
X29338081Y-31076350D01*
X29322915Y-31052938D01*
X29291037Y-31037900D01*
X29237046Y-31029482D01*
X29155543Y-31025929D01*
X29081893Y-31025397D01*
X28865801Y-31025397D01*
X28865801Y-30961302D01*
X28865801Y-30897207D01*
X29114434Y-30897207D01*
X29363067Y-30897207D01*
X29415028Y-30949168D01*
G37*
G36*
X30034977Y-30899714D02*
G01*
X30125424Y-30908451D01*
X30192908Y-30925452D01*
X30244136Y-30952721D01*
X30285815Y-30992265D01*
X30302062Y-31012982D01*
X30318180Y-31039354D01*
X30329492Y-31071826D01*
X30337115Y-31117665D01*
X30342166Y-31184138D01*
X30345763Y-31278514D01*
X30346407Y-31301410D01*
X30352824Y-31538158D01*
X30277733Y-31538158D01*
X30202643Y-31538158D01*
X30202643Y-31319733D01*
X30202334Y-31227082D01*
X30200501Y-31163836D01*
X30195784Y-31122775D01*
X30186826Y-31096677D01*
X30172267Y-31078323D01*
X30154391Y-31063352D01*
X30123158Y-31043778D01*
X30084325Y-31032178D01*
X30027949Y-31026678D01*
X29952949Y-31025397D01*
X29799759Y-31025397D01*
X29799759Y-31281778D01*
X29799759Y-31538158D01*
X29726507Y-31538158D01*
X29653256Y-31538158D01*
X29653256Y-31253104D01*
X29654455Y-31147933D01*
X29657789Y-31056429D01*
X29662858Y-30985315D01*
X29669267Y-30941315D01*
X29672213Y-30932628D01*
X29683398Y-30917659D01*
X29702322Y-30907595D01*
X29735516Y-30901483D01*
X29789514Y-30898369D01*
X29870848Y-30897302D01*
X29914859Y-30897235D01*
X30034977Y-30899714D01*
G37*
G36*
X31191540Y-30971046D02*
G01*
X31190561Y-31128115D01*
X31186161Y-31252479D01*
X31176142Y-31348039D01*
X31158304Y-31418696D01*
X31130451Y-31468351D01*
X31090383Y-31500905D01*
X31035905Y-31520258D01*
X30964816Y-31530311D01*
X30874920Y-31534966D01*
X30873769Y-31535003D01*
X30787274Y-31537048D01*
X30728083Y-31535600D01*
X30686937Y-31529290D01*
X30654577Y-31516747D01*
X30623840Y-31498012D01*
X30554125Y-31432384D01*
X30511951Y-31346090D01*
X30495916Y-31236081D01*
X30495678Y-31218886D01*
X30499714Y-31180416D01*
X30631185Y-31180416D01*
X30632422Y-31255528D01*
X30647586Y-31324555D01*
X30675969Y-31375998D01*
X30693887Y-31390957D01*
X30740008Y-31404875D01*
X30806874Y-31410457D01*
X30881217Y-31408284D01*
X30949774Y-31398934D01*
X30999281Y-31382987D01*
X31008166Y-31377222D01*
X31028607Y-31355622D01*
X31042122Y-31324977D01*
X31050985Y-31276615D01*
X31057469Y-31201861D01*
X31058559Y-31184937D01*
X31068512Y-31025397D01*
X30885640Y-31025397D01*
X30798178Y-31026458D01*
X30739742Y-31030412D01*
X30702774Y-31038417D01*
X30679716Y-31051632D01*
X30673332Y-31057923D01*
X30644585Y-31110715D01*
X30631185Y-31180416D01*
X30499714Y-31180416D01*
X30506299Y-31117657D01*
X30535719Y-31027987D01*
X30580193Y-30959248D01*
X30609601Y-30933832D01*
X30654921Y-30917548D01*
X30735481Y-30905383D01*
X30851864Y-30897247D01*
X30852751Y-30897207D01*
X31054193Y-30888050D01*
X31059541Y-30746125D01*
X31064890Y-30604200D01*
X31128215Y-30604200D01*
X31191540Y-30604200D01*
X31191540Y-30971046D01*
G37*
G36*
X32363566Y-30787329D02*
G01*
X32363566Y-30860581D01*
X32126806Y-30860581D01*
X32015805Y-30861950D01*
X31936316Y-30867211D01*
X31883290Y-30878098D01*
X31851677Y-30896343D01*
X31836427Y-30923679D01*
X31832491Y-30961571D01*
X31839016Y-30999561D01*
X31861574Y-31027069D01*
X31904643Y-31045565D01*
X31972701Y-31056518D01*
X32070225Y-31061397D01*
X32138729Y-31062023D01*
X32363566Y-31062023D01*
X32363566Y-31126118D01*
X32363566Y-31190213D01*
X32133450Y-31190213D01*
X32042350Y-31191675D01*
X31962245Y-31195660D01*
X31901542Y-31201569D01*
X31868649Y-31208800D01*
X31867913Y-31209170D01*
X31839770Y-31241806D01*
X31832491Y-31290934D01*
X31842403Y-31346140D01*
X31867913Y-31372698D01*
X31899260Y-31379978D01*
X31958819Y-31385964D01*
X32038185Y-31390055D01*
X32128950Y-31391651D01*
X32133450Y-31391655D01*
X32363566Y-31391655D01*
X32363566Y-31464907D01*
X32363566Y-31538158D01*
X32111763Y-31537441D01*
X31977236Y-31534839D01*
X31878785Y-31527907D01*
X31816540Y-31516656D01*
X31805022Y-31512474D01*
X31730539Y-31463592D01*
X31686357Y-31394887D01*
X31673268Y-31341118D01*
X31675057Y-31275127D01*
X31693887Y-31210886D01*
X31724748Y-31161093D01*
X31752173Y-31141095D01*
X31765234Y-31129158D01*
X31754973Y-31106805D01*
X31728325Y-31076714D01*
X31695250Y-31034758D01*
X31680612Y-30989835D01*
X31678160Y-30933060D01*
X31685740Y-30861969D01*
X31708603Y-30807278D01*
X31750475Y-30767120D01*
X31815081Y-30739632D01*
X31906147Y-30722949D01*
X32027400Y-30715207D01*
X32115753Y-30714078D01*
X32363566Y-30714078D01*
X32363566Y-30787329D01*
G37*
G36*
X32961827Y-30901001D02*
G01*
X33013454Y-30905811D01*
X33052599Y-30915005D01*
X33087294Y-30929402D01*
X33093224Y-30932374D01*
X33142746Y-30963468D01*
X33178434Y-31002491D01*
X33202351Y-31055494D01*
X33216560Y-31128523D01*
X33223123Y-31227626D01*
X33224272Y-31316593D01*
X33224272Y-31538158D01*
X33161711Y-31538158D01*
X33099149Y-31538158D01*
X33093037Y-31316746D01*
X33088796Y-31207603D01*
X33079965Y-31129793D01*
X33061904Y-31078020D01*
X33029974Y-31046991D01*
X32979535Y-31031411D01*
X32905945Y-31025986D01*
X32837672Y-31025397D01*
X32674885Y-31025397D01*
X32674885Y-31281778D01*
X32674885Y-31538158D01*
X32610357Y-31538158D01*
X32545830Y-31538158D01*
X32550841Y-31222261D01*
X32555851Y-30906363D01*
X32789003Y-30901240D01*
X32889687Y-30899751D01*
X32961827Y-30901001D01*
G37*
G36*
X34377985Y-31217682D02*
G01*
X34377985Y-31538158D01*
X34313890Y-31538158D01*
X34249795Y-31538158D01*
X34249795Y-31217682D01*
X34249795Y-30897207D01*
X34313890Y-30897207D01*
X34377985Y-30897207D01*
X34377985Y-31217682D01*
G37*
G36*
X34942836Y-30899714D02*
G01*
X35033283Y-30908451D01*
X35100767Y-30925452D01*
X35151995Y-30952721D01*
X35193674Y-30992265D01*
X35209921Y-31012982D01*
X35226039Y-31039354D01*
X35237351Y-31071826D01*
X35244974Y-31117665D01*
X35250025Y-31184138D01*
X35253622Y-31278514D01*
X35254266Y-31301410D01*
X35260683Y-31538158D01*
X35185592Y-31538158D01*
X35110502Y-31538158D01*
X35110502Y-31319733D01*
X35110192Y-31227082D01*
X35108359Y-31163836D01*
X35103643Y-31122775D01*
X35094685Y-31096677D01*
X35080126Y-31078323D01*
X35062250Y-31063352D01*
X35031017Y-31043778D01*
X34992183Y-31032178D01*
X34935807Y-31026678D01*
X34860808Y-31025397D01*
X34707618Y-31025397D01*
X34707618Y-31281778D01*
X34707618Y-31538158D01*
X34634366Y-31538158D01*
X34561114Y-31538158D01*
X34561114Y-31253104D01*
X34562314Y-31147933D01*
X34565647Y-31056429D01*
X34570717Y-30985315D01*
X34577125Y-30941315D01*
X34580072Y-30932628D01*
X34591257Y-30917659D01*
X34610181Y-30907595D01*
X34643375Y-30901483D01*
X34697373Y-30898369D01*
X34778706Y-30897302D01*
X34822718Y-30897235D01*
X34942836Y-30899714D01*
G37*
G36*
X35851536Y-30900037D02*
G01*
X35938457Y-30910346D01*
X35998334Y-30930861D01*
X36035803Y-30964308D01*
X36055500Y-31013415D01*
X36062062Y-31080910D01*
X36062190Y-31090878D01*
X36058842Y-31153179D01*
X36044398Y-31194474D01*
X36015607Y-31228138D01*
X35992032Y-31247564D01*
X35965216Y-31260725D01*
X35927338Y-31269177D01*
X35870575Y-31274474D01*
X35787103Y-31278172D01*
X35759227Y-31279089D01*
X35669212Y-31282294D01*
X35609576Y-31286026D01*
X35574081Y-31291682D01*
X35556488Y-31300655D01*
X35550562Y-31314341D01*
X35550011Y-31325874D01*
X35553704Y-31358745D01*
X35568333Y-31381853D01*
X35599228Y-31396861D01*
X35651717Y-31405436D01*
X35731130Y-31409240D01*
X35819211Y-31409968D01*
X36044460Y-31409968D01*
X36044460Y-31474063D01*
X36044460Y-31538158D01*
X35801814Y-31537601D01*
X35700816Y-31535846D01*
X35615884Y-31531412D01*
X35553953Y-31524814D01*
X35522542Y-31516903D01*
X35481617Y-31490250D01*
X35453485Y-31458477D01*
X35435823Y-31414512D01*
X35426306Y-31351286D01*
X35422610Y-31261725D01*
X35422228Y-31211696D01*
X35422295Y-31171900D01*
X35550011Y-31171900D01*
X35721742Y-31171900D01*
X35811587Y-31170159D01*
X35870721Y-31164409D01*
X35904917Y-31153863D01*
X35915433Y-31145439D01*
X35930662Y-31106922D01*
X35931410Y-31076765D01*
X35926276Y-31056520D01*
X35912956Y-31043683D01*
X35884095Y-31036173D01*
X35832337Y-31031910D01*
X35763377Y-31029236D01*
X35670957Y-31028471D01*
X35609126Y-31034975D01*
X35572169Y-31051159D01*
X35554374Y-31079431D01*
X35550011Y-31119204D01*
X35550011Y-31171900D01*
X35422295Y-31171900D01*
X35422379Y-31121767D01*
X35422461Y-31119204D01*
X35424327Y-31060526D01*
X35429689Y-31020034D01*
X35440082Y-30992351D01*
X35457120Y-30969541D01*
X35475351Y-30950737D01*
X35499973Y-30927448D01*
X35523536Y-30912134D01*
X35554080Y-30903124D01*
X35599646Y-30898747D01*
X35668274Y-30897331D01*
X35732936Y-30897207D01*
X35851536Y-30900037D01*
G37*
G36*
X36930061Y-30715903D02*
G01*
X37024426Y-30722371D01*
X37093957Y-30734970D01*
X37144481Y-30755190D01*
X37181825Y-30784518D01*
X37206921Y-30816745D01*
X37233360Y-30883956D01*
X37241610Y-30966554D01*
X37231102Y-31047821D01*
X37216144Y-31087845D01*
X37182922Y-31140901D01*
X37141697Y-31178032D01*
X37085425Y-31202225D01*
X37007063Y-31216465D01*
X36899566Y-31223740D01*
X36895249Y-31223903D01*
X36703724Y-31230993D01*
X36703724Y-31384576D01*
X36703724Y-31538158D01*
X36630473Y-31538158D01*
X36557221Y-31538158D01*
X36557221Y-31339555D01*
X36558038Y-31239363D01*
X36564157Y-31169023D01*
X36581083Y-31123254D01*
X36614319Y-31096777D01*
X36669371Y-31084312D01*
X36751743Y-31080579D01*
X36827470Y-31080336D01*
X36930764Y-31078612D01*
X37002921Y-31071790D01*
X37049336Y-31057394D01*
X37075404Y-31032949D01*
X37086521Y-30995978D01*
X37088295Y-30960638D01*
X37078072Y-30905467D01*
X37052873Y-30879538D01*
X37021527Y-30872258D01*
X36961967Y-30866272D01*
X36882602Y-30862181D01*
X36791837Y-30860584D01*
X36787336Y-30860581D01*
X36557221Y-30860581D01*
X36557221Y-30787329D01*
X36557221Y-30714078D01*
X36805033Y-30714078D01*
X36930061Y-30715903D01*
G37*
G36*
X37820812Y-30961302D02*
G01*
X37820812Y-31025397D01*
X37687127Y-31025397D01*
X37611292Y-31028447D01*
X37556063Y-31036797D01*
X37531468Y-31047372D01*
X37520625Y-31077120D01*
X37513465Y-31141451D01*
X37509925Y-31241115D01*
X37509492Y-31303753D01*
X37509492Y-31538158D01*
X37445397Y-31538158D01*
X37381302Y-31538158D01*
X37381302Y-31265934D01*
X37381717Y-31159048D01*
X37383480Y-31082247D01*
X37387364Y-31028995D01*
X37394143Y-30992756D01*
X37404592Y-30966993D01*
X37419257Y-30945458D01*
X37438538Y-30923396D01*
X37459896Y-30909341D01*
X37491531Y-30901493D01*
X37541643Y-30898053D01*
X37618431Y-30897219D01*
X37639012Y-30897207D01*
X37820812Y-30897207D01*
X37820812Y-30961302D01*
G37*
G36*
X38430831Y-30909967D02*
G01*
X38490493Y-30933700D01*
X38534784Y-30973537D01*
X38570504Y-31032212D01*
X38571319Y-31033889D01*
X38598608Y-31119984D01*
X38608268Y-31219195D01*
X38600090Y-31316222D01*
X38576190Y-31391290D01*
X38530408Y-31459402D01*
X38469867Y-31504562D01*
X38388299Y-31529789D01*
X38279435Y-31538103D01*
X38271348Y-31538130D01*
X38170287Y-31533964D01*
X38097071Y-31520714D01*
X38059502Y-31506082D01*
X37988937Y-31450451D01*
X37941429Y-31366553D01*
X37918379Y-31265661D01*
X37918483Y-31216353D01*
X38058879Y-31216353D01*
X38060512Y-31282681D01*
X38067780Y-31323905D01*
X38084237Y-31351490D01*
X38107131Y-31372013D01*
X38160474Y-31397464D01*
X38231650Y-31410637D01*
X38307732Y-31411438D01*
X38375793Y-31399771D01*
X38422907Y-31375539D01*
X38424116Y-31374364D01*
X38459493Y-31316160D01*
X38476068Y-31240015D01*
X38473531Y-31159603D01*
X38451574Y-31088595D01*
X38431238Y-31058646D01*
X38406469Y-31040351D01*
X38367530Y-31030009D01*
X38305351Y-31025788D01*
X38266639Y-31025397D01*
X38176292Y-31029439D01*
X38116184Y-31045143D01*
X38080474Y-31077879D01*
X38063319Y-31133016D01*
X38058879Y-31215923D01*
X38058879Y-31216353D01*
X37918483Y-31216353D01*
X37918484Y-31215923D01*
X37918612Y-31155397D01*
X37944044Y-31055119D01*
X37991943Y-30974293D01*
X38007052Y-30958290D01*
X38034893Y-30934004D01*
X38063266Y-30918309D01*
X38101298Y-30908898D01*
X38158119Y-30903466D01*
X38238207Y-30899874D01*
X38349002Y-30899604D01*
X38430831Y-30909967D01*
G37*
G36*
X40054986Y-30960561D02*
G01*
X40054986Y-31023916D01*
X39903905Y-31029235D01*
X39752823Y-31034553D01*
X39747728Y-31286356D01*
X39742633Y-31538158D01*
X39679055Y-31538158D01*
X39615476Y-31538158D01*
X39615476Y-31254308D01*
X39615828Y-31131740D01*
X39619174Y-31041009D01*
X39628950Y-30977329D01*
X39648592Y-30935914D01*
X39681537Y-30911978D01*
X39731221Y-30900735D01*
X39801079Y-30897399D01*
X39871857Y-30897207D01*
X40054986Y-30897207D01*
X40054986Y-30960561D01*
G37*
G36*
X40750717Y-30949168D02*
G01*
X40786121Y-30997030D01*
X40809323Y-31060663D01*
X40821346Y-31145670D01*
X40823211Y-31257657D01*
X40820362Y-31331153D01*
X40815282Y-31409351D01*
X40805875Y-31464874D01*
X40786589Y-31501566D01*
X40751874Y-31523269D01*
X40696179Y-31533826D01*
X40613953Y-31537081D01*
X40523043Y-31536997D01*
X40433221Y-31535264D01*
X40353927Y-31531419D01*
X40293996Y-31526037D01*
X40262966Y-31520000D01*
X40209602Y-31480486D01*
X40175973Y-31419421D01*
X40163914Y-31347205D01*
X40165545Y-31336716D01*
X40293054Y-31336716D01*
X40299639Y-31368879D01*
X40322974Y-31390428D01*
X40368434Y-31403199D01*
X40441388Y-31409030D01*
X40507315Y-31409968D01*
X40677625Y-31409968D01*
X40677625Y-31336716D01*
X40677625Y-31263465D01*
X40507315Y-31263465D01*
X40413238Y-31265716D01*
X40350208Y-31273694D01*
X40312852Y-31289236D01*
X40295798Y-31314177D01*
X40293054Y-31336716D01*
X40165545Y-31336716D01*
X40175258Y-31274240D01*
X40209020Y-31214125D01*
X40229516Y-31192059D01*
X40250963Y-31177183D01*
X40280920Y-31167803D01*
X40326949Y-31162220D01*
X40396609Y-31158740D01*
X40465401Y-31156590D01*
X40556158Y-31153633D01*
X40616495Y-31150118D01*
X40652609Y-31144683D01*
X40670699Y-31135963D01*
X40676961Y-31122595D01*
X40677625Y-31109892D01*
X40673770Y-31076350D01*
X40658603Y-31052938D01*
X40626725Y-31037900D01*
X40572735Y-31029482D01*
X40491231Y-31025929D01*
X40417582Y-31025397D01*
X40201489Y-31025397D01*
X40201489Y-30961302D01*
X40201489Y-30897207D01*
X40450122Y-30897207D01*
X40698755Y-30897207D01*
X40750717Y-30949168D01*
G37*
G36*
X41590382Y-30897469D02*
G01*
X41696936Y-30898493D01*
X41777007Y-30900632D01*
X41835666Y-30904239D01*
X41877983Y-30909667D01*
X41909029Y-30917272D01*
X41933873Y-30927405D01*
X41941501Y-30931325D01*
X41993303Y-30964868D01*
X42030374Y-31005649D01*
X42055014Y-31060036D01*
X42069522Y-31134398D01*
X42076199Y-31235104D01*
X42077387Y-31307610D01*
X42078562Y-31529002D01*
X42009889Y-31534686D01*
X41941215Y-31540369D01*
X41941215Y-31327833D01*
X41940760Y-31235962D01*
X41938508Y-31173091D01*
X41933127Y-31131594D01*
X41923286Y-31103849D01*
X41907656Y-31082230D01*
X41896265Y-31070347D01*
X41865627Y-31045119D01*
X41829883Y-31031455D01*
X41776954Y-31026050D01*
X41731966Y-31025397D01*
X41612617Y-31025397D01*
X41607522Y-31277199D01*
X41602427Y-31529002D01*
X41533753Y-31534686D01*
X41465080Y-31540369D01*
X41465080Y-31282883D01*
X41465080Y-31025397D01*
X41300264Y-31025397D01*
X41135447Y-31025397D01*
X41135447Y-31281778D01*
X41135447Y-31538158D01*
X41062196Y-31538158D01*
X40988944Y-31538158D01*
X40988944Y-31253104D01*
X40990144Y-31147933D01*
X40993477Y-31056429D01*
X40998547Y-30985315D01*
X41004955Y-30941315D01*
X41007901Y-30932628D01*
X41015823Y-30921328D01*
X41028972Y-30912720D01*
X41051924Y-30906442D01*
X41089256Y-30902127D01*
X41145543Y-30899410D01*
X41225361Y-30897929D01*
X41333287Y-30897316D01*
X41452275Y-30897207D01*
X41590382Y-30897469D01*
G37*
G36*
X42851249Y-30897457D02*
G01*
X42956343Y-30898463D01*
X43035250Y-30900606D01*
X43093189Y-30904268D01*
X43135378Y-30909830D01*
X43167036Y-30917675D01*
X43193381Y-30928183D01*
X43203015Y-30932919D01*
X43252185Y-30963936D01*
X43287620Y-31003129D01*
X43311358Y-31056522D01*
X43325441Y-31130135D01*
X43331908Y-31229990D01*
X43332996Y-31316593D01*
X43332996Y-31538158D01*
X43268901Y-31538158D01*
X43204806Y-31538158D01*
X43204806Y-31326727D01*
X43204345Y-31235119D01*
X43202067Y-31172482D01*
X43196631Y-31131162D01*
X43186694Y-31103508D01*
X43170916Y-31081866D01*
X43159856Y-31070347D01*
X43130875Y-31046087D01*
X43097505Y-31032456D01*
X43048468Y-31026538D01*
X42985883Y-31025397D01*
X42856861Y-31025397D01*
X42856861Y-31281778D01*
X42856861Y-31538158D01*
X42792765Y-31538158D01*
X42728670Y-31538158D01*
X42728670Y-31281778D01*
X42728670Y-31025397D01*
X42554698Y-31025397D01*
X42380725Y-31025397D01*
X42380725Y-31281778D01*
X42380725Y-31538158D01*
X42316630Y-31538158D01*
X42252535Y-31538158D01*
X42252535Y-31239658D01*
X42253667Y-31111098D01*
X42257163Y-31016902D01*
X42263175Y-30954876D01*
X42271852Y-30922823D01*
X42274510Y-30919182D01*
X42294866Y-30911359D01*
X42340117Y-30905393D01*
X42412931Y-30901151D01*
X42515973Y-30898499D01*
X42651907Y-30897306D01*
X42714749Y-30897207D01*
X42851249Y-30897457D01*
G37*
G36*
X43927958Y-30897816D02*
G01*
X43991279Y-30900484D01*
X44033680Y-30906468D01*
X44063010Y-30917026D01*
X44087118Y-30933417D01*
X44093093Y-30938439D01*
X44132695Y-30994066D01*
X44152471Y-31067878D01*
X44149594Y-31145621D01*
X44140438Y-31177364D01*
X44112564Y-31220560D01*
X44064562Y-31251187D01*
X43992112Y-31270607D01*
X43890898Y-31280184D01*
X43809720Y-31281778D01*
X43726105Y-31282318D01*
X43672518Y-31284784D01*
X43642367Y-31290443D01*
X43629060Y-31300563D01*
X43626005Y-31316410D01*
X43626003Y-31317095D01*
X43631136Y-31353377D01*
X43649888Y-31379064D01*
X43687286Y-31395848D01*
X43748358Y-31405422D01*
X43838131Y-31409477D01*
X43902004Y-31409968D01*
X44120451Y-31409968D01*
X44120451Y-31474063D01*
X44120451Y-31538158D01*
X43886961Y-31536997D01*
X43795078Y-31535414D01*
X43714051Y-31531937D01*
X43652259Y-31527067D01*
X43618077Y-31521306D01*
X43616846Y-31520846D01*
X43577254Y-31496015D01*
X43543595Y-31465145D01*
X43527493Y-31443125D01*
X43516879Y-31414753D01*
X43510653Y-31372496D01*
X43507716Y-31308826D01*
X43506969Y-31216209D01*
X43506969Y-31214258D01*
X43506969Y-31134070D01*
X43626003Y-31134070D01*
X43628262Y-31151258D01*
X43639468Y-31162264D01*
X43666261Y-31168460D01*
X43715283Y-31171213D01*
X43793173Y-31171892D01*
X43809524Y-31171900D01*
X43893127Y-31171463D01*
X43947566Y-31169048D01*
X43980302Y-31163002D01*
X43998795Y-31151671D01*
X44010506Y-31133404D01*
X44013659Y-31126660D01*
X44025958Y-31084759D01*
X44015918Y-31055599D01*
X43979988Y-31037265D01*
X43914615Y-31027842D01*
X43825847Y-31025397D01*
X43737262Y-31027759D01*
X43679056Y-31037046D01*
X43645160Y-31056557D01*
X43629507Y-31089591D01*
X43626003Y-31134070D01*
X43506969Y-31134070D01*
X43506969Y-31004080D01*
X43566775Y-30950643D01*
X43593955Y-30927617D01*
X43619433Y-30912385D01*
X43651316Y-30903338D01*
X43697708Y-30898866D01*
X43766716Y-30897359D01*
X43835869Y-30897207D01*
X43927958Y-30897816D01*
G37*
G36*
X44757985Y-30956724D02*
G01*
X44752246Y-31016240D01*
X44605743Y-31025397D01*
X44459240Y-31034553D01*
X44454145Y-31286356D01*
X44449050Y-31538158D01*
X44376315Y-31538158D01*
X44303580Y-31538158D01*
X44303580Y-31293667D01*
X44305735Y-31163164D01*
X44312764Y-31064740D01*
X44325511Y-30994070D01*
X44344822Y-30946829D01*
X44371542Y-30918691D01*
X44377554Y-30915133D01*
X44409852Y-30907326D01*
X44468739Y-30901239D01*
X44544190Y-30897729D01*
X44587386Y-30897207D01*
X44763723Y-30897207D01*
X44757985Y-30956724D01*
G37*
G36*
X44999471Y-31455750D02*
G01*
X44999471Y-31538158D01*
X44926219Y-31538158D01*
X44852967Y-31538158D01*
X44852967Y-31455750D01*
X44852967Y-31373342D01*
X44926219Y-31373342D01*
X44999471Y-31373342D01*
X44999471Y-31455750D01*
G37*
G36*
X21234070Y-30798321D02*
G01*
X21248097Y-30808881D01*
X21255820Y-30835746D01*
X21259968Y-30886496D01*
X21262137Y-30938411D01*
X21267486Y-31080336D01*
X21404062Y-31080336D01*
X21473683Y-31080914D01*
X21514415Y-31084378D01*
X21533996Y-31093321D01*
X21540161Y-31110336D01*
X21540638Y-31126118D01*
X21538927Y-31149405D01*
X21528649Y-31163055D01*
X21502089Y-31169640D01*
X21451533Y-31171732D01*
X21403292Y-31171900D01*
X21265945Y-31171900D01*
X21265945Y-31309247D01*
X21265945Y-31446594D01*
X21211006Y-31446594D01*
X21156067Y-31446594D01*
X21156067Y-31309247D01*
X21156067Y-31171900D01*
X21018721Y-31171900D01*
X20948860Y-31171330D01*
X20907910Y-31167903D01*
X20888154Y-31159050D01*
X20881879Y-31142198D01*
X20881374Y-31126118D01*
X20883099Y-31102780D01*
X20893433Y-31089126D01*
X20920111Y-31082562D01*
X20970869Y-31080496D01*
X21017950Y-31080336D01*
X21154527Y-31080336D01*
X21159875Y-30938411D01*
X21163154Y-30867128D01*
X21168152Y-30824876D01*
X21177602Y-30804075D01*
X21194235Y-30797144D01*
X21211006Y-30796486D01*
X21234070Y-30798321D01*
G37*
G36*
X21993698Y-30788890D02*
G01*
X22007294Y-30798556D01*
X22014115Y-30823798D01*
X22016496Y-30872090D01*
X22016774Y-30933832D01*
X22016774Y-31080336D01*
X22154121Y-31080336D01*
X22223981Y-31080906D01*
X22264932Y-31084332D01*
X22284687Y-31093186D01*
X22290963Y-31110038D01*
X22291468Y-31126118D01*
X22289756Y-31149405D01*
X22279478Y-31163055D01*
X22252918Y-31169640D01*
X22202362Y-31171732D01*
X22154121Y-31171900D01*
X22016774Y-31171900D01*
X22016774Y-31309247D01*
X22016203Y-31379107D01*
X22012777Y-31420058D01*
X22003924Y-31439813D01*
X21987072Y-31446089D01*
X21970992Y-31446594D01*
X21947705Y-31444882D01*
X21934055Y-31434604D01*
X21927470Y-31408044D01*
X21925378Y-31357488D01*
X21925210Y-31309247D01*
X21925210Y-31171900D01*
X21778706Y-31171900D01*
X21706047Y-31171412D01*
X21662540Y-31168392D01*
X21640712Y-31160504D01*
X21633092Y-31145412D01*
X21632203Y-31126118D01*
X21633764Y-31103412D01*
X21643430Y-31089816D01*
X21668672Y-31082995D01*
X21716964Y-31080613D01*
X21778706Y-31080336D01*
X21925210Y-31080336D01*
X21925210Y-30933832D01*
X21925697Y-30861173D01*
X21928718Y-30817666D01*
X21936606Y-30795838D01*
X21951697Y-30788218D01*
X21970992Y-30787329D01*
X21993698Y-30788890D01*
G37*
G36*
X26855099Y-30652225D02*
G01*
X26874555Y-30665770D01*
X26882284Y-30700845D01*
X26884482Y-30727812D01*
X26890113Y-30805642D01*
X26814755Y-30805642D01*
X26739398Y-30805642D01*
X26745029Y-30727812D01*
X26750406Y-30679020D01*
X26763184Y-30656586D01*
X26792525Y-30650282D01*
X26814755Y-30649982D01*
X26855099Y-30652225D01*
G37*
G36*
X34353273Y-30642585D02*
G01*
X34371922Y-30654508D01*
X34377590Y-30686562D01*
X34377985Y-30723234D01*
X34376617Y-30773869D01*
X34367344Y-30797846D01*
X34342413Y-30805134D01*
X34313890Y-30805642D01*
X34274507Y-30803883D01*
X34255858Y-30791960D01*
X34250190Y-30759906D01*
X34249795Y-30723234D01*
X34251163Y-30672599D01*
X34260437Y-30648622D01*
X34285367Y-30641334D01*
X34313890Y-30640826D01*
X34353273Y-30642585D01*
G37*
G36*
X27181013Y-30292881D02*
G01*
X27181013Y-30421071D01*
X26247055Y-30421071D01*
X25313097Y-30421071D01*
X25313097Y-30292881D01*
X25313097Y-30164690D01*
X26247055Y-30164690D01*
X27181013Y-30164690D01*
X27181013Y-30292881D01*
G37*
G36*
X22278645Y-28460653D02*
G01*
X22099182Y-28697784D01*
X21764972Y-28698721D01*
X21430761Y-28699658D01*
X21430761Y-29377235D01*
X21430761Y-30054813D01*
X21146911Y-30054813D01*
X20863061Y-30054813D01*
X20863061Y-29377235D01*
X20863061Y-28699658D01*
X20431796Y-28699658D01*
X20000530Y-28699658D01*
X20179993Y-28462527D01*
X20359456Y-28225396D01*
X21408782Y-28224459D01*
X22458108Y-28223522D01*
X22278645Y-28460653D01*
G37*
G36*
X23622085Y-28505290D02*
G01*
X23913280Y-28787058D01*
X24205726Y-28506114D01*
X24498173Y-28225170D01*
X24868433Y-28224346D01*
X25238693Y-28223522D01*
X25014936Y-28429944D01*
X24879853Y-28554173D01*
X24750429Y-28672453D01*
X24630396Y-28781421D01*
X24523484Y-28877710D01*
X24433424Y-28957956D01*
X24363947Y-29018792D01*
X24331213Y-29046650D01*
X24255818Y-29109505D01*
X24331213Y-29172085D01*
X24373310Y-29208649D01*
X24439289Y-29268111D01*
X24526554Y-29348067D01*
X24632511Y-29446111D01*
X24754562Y-29559837D01*
X24890113Y-29686840D01*
X25036568Y-29824712D01*
X25099719Y-29884348D01*
X25280068Y-30054813D01*
X24874953Y-30054813D01*
X24469838Y-30054813D01*
X24170783Y-29761806D01*
X24084552Y-29678028D01*
X24006623Y-29603662D01*
X23940894Y-29542318D01*
X23891264Y-29497608D01*
X23861629Y-29473141D01*
X23855318Y-29469617D01*
X23837855Y-29481885D01*
X23797776Y-29515861D01*
X23739016Y-29568020D01*
X23665511Y-29634842D01*
X23581195Y-29712805D01*
X23527949Y-29762623D01*
X23216989Y-30054813D01*
X22860443Y-30054813D01*
X22749092Y-30054052D01*
X22654643Y-30051918D01*
X22581917Y-30048634D01*
X22535737Y-30044427D01*
X22520922Y-30039518D01*
X22521295Y-30039047D01*
X22538928Y-30022902D01*
X22579842Y-29985356D01*
X22640353Y-29929795D01*
X22716775Y-29859602D01*
X22805423Y-29778162D01*
X22902612Y-29688859D01*
X22905153Y-29686524D01*
X23009775Y-29590608D01*
X23112667Y-29496691D01*
X23208613Y-29409504D01*
X23292396Y-29333778D01*
X23358800Y-29274243D01*
X23396914Y-29240570D01*
X23522215Y-29131374D01*
X23469963Y-29087104D01*
X23440950Y-29061457D01*
X23391305Y-29016407D01*
X23324772Y-28955436D01*
X23245096Y-28882027D01*
X23156021Y-28799662D01*
X23061288Y-28711825D01*
X22964644Y-28621997D01*
X22869831Y-28533661D01*
X22780592Y-28450300D01*
X22700673Y-28375397D01*
X22633817Y-28312433D01*
X22583766Y-28264892D01*
X22554266Y-28236256D01*
X22547848Y-28229321D01*
X22565277Y-28227614D01*
X22614030Y-28226105D01*
X22688803Y-28224874D01*
X22784294Y-28223999D01*
X22895202Y-28223559D01*
X22939369Y-28223522D01*
X23330890Y-28223522D01*
X23622085Y-28505290D01*
G37*
G36*
X29030617Y-28787375D02*
G01*
X29030174Y-28966358D01*
X29028519Y-29113289D01*
X29025164Y-29232735D01*
X29019619Y-29329263D01*
X29011395Y-29407439D01*
X29000003Y-29471831D01*
X28984954Y-29527004D01*
X28965760Y-29577526D01*
X28941930Y-29627964D01*
X28940249Y-29631270D01*
X28882809Y-29715945D01*
X28800401Y-29800961D01*
X28703361Y-29876910D01*
X28612754Y-29929401D01*
X28531704Y-29964737D01*
X28448843Y-29993070D01*
X28359030Y-30015087D01*
X28257125Y-30031477D01*
X28137988Y-30042928D01*
X27996478Y-30050129D01*
X27827455Y-30053767D01*
X27677834Y-30054572D01*
X27194914Y-30054813D01*
X27257439Y-29976983D01*
X27295743Y-29928954D01*
X27348448Y-29862412D01*
X27407383Y-29787687D01*
X27444316Y-29740699D01*
X27568670Y-29582244D01*
X27883557Y-29575882D01*
X27999601Y-29573220D01*
X28085745Y-29570031D01*
X28148715Y-29565438D01*
X28195233Y-29558561D01*
X28232026Y-29548523D01*
X28265818Y-29534445D01*
X28288917Y-29522940D01*
X28332067Y-29500063D01*
X28366932Y-29477778D01*
X28394440Y-29452080D01*
X28415520Y-29418963D01*
X28431099Y-29374420D01*
X28442106Y-29314447D01*
X28449470Y-29235038D01*
X28454117Y-29132185D01*
X28456977Y-29001885D01*
X28458978Y-28840130D01*
X28459531Y-28786644D01*
X28465302Y-28223522D01*
X28747960Y-28223522D01*
X29030617Y-28223522D01*
X29030617Y-28787375D01*
G37*
G36*
X30597535Y-28223688D02*
G01*
X30779626Y-28224166D01*
X30947140Y-28224925D01*
X31096857Y-28225936D01*
X31225558Y-28227169D01*
X31330023Y-28228593D01*
X31407033Y-28230179D01*
X31453370Y-28231897D01*
X31466233Y-28233435D01*
X31455601Y-28250571D01*
X31426247Y-28291433D01*
X31381983Y-28350872D01*
X31326622Y-28423742D01*
X31289872Y-28471503D01*
X31113511Y-28699658D01*
X30520730Y-28699658D01*
X29927949Y-28699658D01*
X29927949Y-28809325D01*
X29927949Y-28918993D01*
X30650436Y-28923781D01*
X31372923Y-28928569D01*
X31213558Y-29133749D01*
X31054193Y-29338929D01*
X30491071Y-29339769D01*
X29927949Y-29340610D01*
X29927949Y-29459447D01*
X29927949Y-29578284D01*
X30706741Y-29583059D01*
X31485532Y-29587834D01*
X31306488Y-29821088D01*
X31127445Y-30054342D01*
X30234690Y-30054578D01*
X29341936Y-30054813D01*
X29341936Y-29139168D01*
X29341936Y-28223522D01*
X30404085Y-28223522D01*
X30597535Y-28223688D01*
G37*
G36*
X32926857Y-28223942D02*
G01*
X33098929Y-28225474D01*
X33242522Y-28228524D01*
X33361707Y-28233499D01*
X33460553Y-28240806D01*
X33543131Y-28250852D01*
X33613511Y-28264043D01*
X33675762Y-28280787D01*
X33733956Y-28301490D01*
X33792163Y-28326559D01*
X33802890Y-28331536D01*
X33939692Y-28411944D01*
X34044815Y-28510545D01*
X34118676Y-28627885D01*
X34161690Y-28764511D01*
X34169037Y-28812639D01*
X34168153Y-28943758D01*
X34137535Y-29072391D01*
X34081142Y-29192073D01*
X34002933Y-29296335D01*
X33906870Y-29378712D01*
X33796910Y-29432735D01*
X33787571Y-29435656D01*
X33743925Y-29451265D01*
X33720172Y-29464684D01*
X33718721Y-29467385D01*
X33731098Y-29483199D01*
X33765507Y-29520445D01*
X33817865Y-29574878D01*
X33884087Y-29642251D01*
X33958051Y-29716288D01*
X34037120Y-29795602D01*
X34109344Y-29869444D01*
X34169751Y-29932624D01*
X34213373Y-29979951D01*
X34233992Y-30004452D01*
X34270602Y-30054813D01*
X33894630Y-30054813D01*
X33518659Y-30054813D01*
X33321105Y-29818088D01*
X33123551Y-29581363D01*
X32688620Y-29580020D01*
X32253688Y-29578677D01*
X32253688Y-29816745D01*
X32253688Y-30054813D01*
X31960682Y-30054813D01*
X31667675Y-30054813D01*
X31667675Y-29587834D01*
X31667675Y-29120855D01*
X32492803Y-29120855D01*
X32722069Y-29120373D01*
X32919842Y-29118942D01*
X33085204Y-29116581D01*
X33217238Y-29113312D01*
X33315024Y-29109153D01*
X33377645Y-29104127D01*
X33397522Y-29100814D01*
X33479504Y-29066118D01*
X33537746Y-29013547D01*
X33570786Y-28949840D01*
X33577162Y-28881741D01*
X33555412Y-28815990D01*
X33504074Y-28759330D01*
X33475532Y-28741051D01*
X33459154Y-28733506D01*
X33437835Y-28727177D01*
X33408311Y-28721931D01*
X33367318Y-28717635D01*
X33311590Y-28714156D01*
X33237864Y-28711361D01*
X33142876Y-28709117D01*
X33023359Y-28707291D01*
X32876051Y-28705750D01*
X32697687Y-28704361D01*
X32551273Y-28703400D01*
X32377176Y-28702123D01*
X32214784Y-28700569D01*
X32067665Y-28698799D01*
X31939385Y-28696873D01*
X31833511Y-28694850D01*
X31753609Y-28692791D01*
X31703247Y-28690756D01*
X31685988Y-28688829D01*
X31696648Y-28671984D01*
X31726081Y-28631426D01*
X31770470Y-28572269D01*
X31825993Y-28499627D01*
X31863141Y-28451598D01*
X32040293Y-28223522D01*
X32722236Y-28223522D01*
X32926857Y-28223942D01*
G37*
G36*
X35595794Y-28229592D02*
G01*
X35788942Y-28231342D01*
X35949068Y-28233316D01*
X36079773Y-28235662D01*
X36184660Y-28238532D01*
X36267332Y-28242077D01*
X36331391Y-28246447D01*
X36380440Y-28251793D01*
X36418082Y-28258266D01*
X36444945Y-28265108D01*
X36613593Y-28329309D01*
X36750692Y-28411149D01*
X36855949Y-28510395D01*
X36929071Y-28626816D01*
X36942450Y-28658985D01*
X36971290Y-28776970D01*
X36976890Y-28906240D01*
X36959899Y-29033270D01*
X36920964Y-29144532D01*
X36919031Y-29148324D01*
X36868079Y-29226732D01*
X36800841Y-29302085D01*
X36725063Y-29368062D01*
X36648492Y-29418339D01*
X36578876Y-29446593D01*
X36548794Y-29450487D01*
X36523709Y-29457371D01*
X36530024Y-29478776D01*
X36568208Y-29515829D01*
X36580113Y-29525539D01*
X36612072Y-29554393D01*
X36663517Y-29604680D01*
X36729050Y-29670955D01*
X36803276Y-29747775D01*
X36866043Y-29813967D01*
X37092457Y-30054813D01*
X36708704Y-30054813D01*
X36324951Y-30054813D01*
X36126168Y-29816745D01*
X35927384Y-29578677D01*
X35491473Y-29578677D01*
X35055563Y-29578677D01*
X35055563Y-29816745D01*
X35055563Y-30054813D01*
X34771713Y-30054813D01*
X34487863Y-30054813D01*
X34487863Y-29588670D01*
X34487863Y-29122527D01*
X35353148Y-29117113D01*
X35555536Y-29115748D01*
X35724558Y-29114320D01*
X35863470Y-29112697D01*
X35975531Y-29110748D01*
X36064000Y-29108341D01*
X36132134Y-29105344D01*
X36183193Y-29101625D01*
X36220433Y-29097053D01*
X36247114Y-29091495D01*
X36266494Y-29084820D01*
X36276838Y-29079755D01*
X36325385Y-29046122D01*
X36362697Y-29008580D01*
X36363824Y-29007007D01*
X36389470Y-28941392D01*
X36384951Y-28870189D01*
X36353553Y-28802727D01*
X36298561Y-28748336D01*
X36266388Y-28730338D01*
X36239169Y-28724518D01*
X36183951Y-28719298D01*
X36099378Y-28714635D01*
X35984095Y-28710481D01*
X35836745Y-28706792D01*
X35655974Y-28703521D01*
X35440424Y-28700624D01*
X35353555Y-28699658D01*
X34488678Y-28690501D01*
X34666821Y-28457039D01*
X34844964Y-28223576D01*
X35595794Y-28229592D01*
G37*
G36*
X37884907Y-28223835D02*
G01*
X38168757Y-28553582D01*
X38252334Y-28650675D01*
X38331101Y-28742184D01*
X38400852Y-28823220D01*
X38457380Y-28888898D01*
X38496479Y-28934331D01*
X38508821Y-28948675D01*
X38565035Y-29014021D01*
X38882082Y-28626423D01*
X38966201Y-28524208D01*
X39043466Y-28431507D01*
X39110670Y-28352071D01*
X39164607Y-28289656D01*
X39202068Y-28248014D01*
X39219848Y-28230898D01*
X39220159Y-28230755D01*
X39244405Y-28228461D01*
X39299119Y-28226957D01*
X39378153Y-28226296D01*
X39475355Y-28226528D01*
X39582824Y-28227682D01*
X39924458Y-28232679D01*
X39385396Y-28840703D01*
X38846334Y-29448727D01*
X38846334Y-29751770D01*
X38846334Y-30054813D01*
X38553328Y-30054813D01*
X38260321Y-30054813D01*
X38259751Y-29748072D01*
X38259181Y-29441331D01*
X37710364Y-28841327D01*
X37596465Y-28716611D01*
X37490559Y-28600272D01*
X37395137Y-28495073D01*
X37312687Y-28403778D01*
X37245701Y-28329147D01*
X37196668Y-28273944D01*
X37168078Y-28240932D01*
X37161547Y-28232423D01*
X37178940Y-28229709D01*
X37227442Y-28227345D01*
X37301535Y-28225463D01*
X37395703Y-28224198D01*
X37504430Y-28223683D01*
X37523227Y-28223679D01*
X37884907Y-28223835D01*
G37*
G36*
X80443755Y-28052992D02*
G01*
X80760069Y-28053088D01*
X81071216Y-28053261D01*
X81375348Y-28053506D01*
X81670619Y-28053820D01*
X81955182Y-28054199D01*
X82227188Y-28054638D01*
X82484790Y-28055135D01*
X82726142Y-28055685D01*
X82949395Y-28056283D01*
X83152703Y-28056927D01*
X83334218Y-28057613D01*
X83492092Y-28058335D01*
X83624479Y-28059091D01*
X83729530Y-28059877D01*
X83805399Y-28060689D01*
X83812763Y-28060792D01*
X84367434Y-28068861D01*
X84778617Y-28896080D01*
X84866178Y-29071959D01*
X84941040Y-29221632D01*
X85004213Y-29346989D01*
X85056712Y-29449916D01*
X85099548Y-29532303D01*
X85133734Y-29596037D01*
X85160282Y-29643006D01*
X85180206Y-29675100D01*
X85194517Y-29694205D01*
X85204228Y-29702210D01*
X85210296Y-29701064D01*
X85225679Y-29682683D01*
X85257314Y-29643617D01*
X85302107Y-29587738D01*
X85356959Y-29518914D01*
X85418774Y-29441014D01*
X85447040Y-29405292D01*
X85505932Y-29330914D01*
X85580712Y-29236659D01*
X85667760Y-29127077D01*
X85763458Y-29006719D01*
X85864187Y-28880136D01*
X85966327Y-28751880D01*
X86066261Y-28626501D01*
X86083068Y-28605426D01*
X86502850Y-28079098D01*
X86623302Y-28073979D01*
X86660227Y-28073102D01*
X86725338Y-28072330D01*
X86815557Y-28071673D01*
X86927808Y-28071138D01*
X87059016Y-28070737D01*
X87206103Y-28070477D01*
X87365994Y-28070368D01*
X87535611Y-28070419D01*
X87711879Y-28070640D01*
X87732184Y-28070676D01*
X87939406Y-28071079D01*
X88117480Y-28071575D01*
X88268521Y-28072324D01*
X88394642Y-28073486D01*
X88497958Y-28075220D01*
X88580583Y-28077684D01*
X88644631Y-28081039D01*
X88692215Y-28085444D01*
X88725451Y-28091057D01*
X88746451Y-28098038D01*
X88757330Y-28106547D01*
X88760202Y-28116742D01*
X88757181Y-28128784D01*
X88750381Y-28142831D01*
X88748048Y-28147219D01*
X88734659Y-28166313D01*
X88702930Y-28208254D01*
X88654082Y-28271502D01*
X88589340Y-28354518D01*
X88509925Y-28455763D01*
X88417059Y-28573700D01*
X88311965Y-28706789D01*
X88195865Y-28853492D01*
X88069982Y-29012270D01*
X87935537Y-29181584D01*
X87793754Y-29359896D01*
X87645854Y-29545667D01*
X87493061Y-29737359D01*
X87336596Y-29933432D01*
X87177681Y-30132348D01*
X87017540Y-30332568D01*
X86857394Y-30532555D01*
X86698466Y-30730768D01*
X86541978Y-30925670D01*
X86438540Y-31054338D01*
X86336809Y-31181087D01*
X86253254Y-31285937D01*
X86186225Y-31371158D01*
X86134076Y-31439023D01*
X86095158Y-31491805D01*
X86067823Y-31531776D01*
X86050422Y-31561207D01*
X86041308Y-31582371D01*
X86038832Y-31597541D01*
X86039711Y-31604186D01*
X86048431Y-31625923D01*
X86069332Y-31672181D01*
X86100750Y-31739451D01*
X86141021Y-31824225D01*
X86188482Y-31922993D01*
X86241469Y-32032249D01*
X86284343Y-32120001D01*
X86352006Y-32258289D01*
X86425757Y-32409433D01*
X86501738Y-32565494D01*
X86576086Y-32718532D01*
X86644942Y-32860608D01*
X86704444Y-32983782D01*
X86712435Y-33000369D01*
X86837601Y-33259938D01*
X86962505Y-33518338D01*
X87085380Y-33771934D01*
X87204457Y-34017096D01*
X87317971Y-34250189D01*
X87424152Y-34467584D01*
X87521234Y-34665646D01*
X87607449Y-34840745D01*
X87642212Y-34911043D01*
X87697132Y-35023313D01*
X87745211Y-35124336D01*
X87785008Y-35210893D01*
X87815080Y-35279763D01*
X87833985Y-35327725D01*
X87840281Y-35351560D01*
X87840058Y-35352829D01*
X87835428Y-35357699D01*
X87824081Y-35361855D01*
X87803796Y-35365345D01*
X87772350Y-35368220D01*
X87727523Y-35370528D01*
X87667094Y-35372318D01*
X87588841Y-35373641D01*
X87490543Y-35374544D01*
X87369977Y-35375077D01*
X87224924Y-35375290D01*
X87053161Y-35375231D01*
X86852467Y-35374949D01*
X86841853Y-35374930D01*
X86665085Y-35374460D01*
X86494710Y-35373705D01*
X86333790Y-35372698D01*
X86185387Y-35371471D01*
X86052565Y-35370059D01*
X85938386Y-35368494D01*
X85845913Y-35366808D01*
X85778208Y-35365037D01*
X85738336Y-35363211D01*
X85735569Y-35362990D01*
X85618338Y-35352799D01*
X85508506Y-35133969D01*
X85461370Y-35039419D01*
X85402833Y-34920966D01*
X85334986Y-34782904D01*
X85259921Y-34629527D01*
X85179732Y-34465132D01*
X85096509Y-34294013D01*
X85012345Y-34120465D01*
X84929333Y-33948783D01*
X84849564Y-33783262D01*
X84781372Y-33641230D01*
X84724571Y-33522846D01*
X84679585Y-33429797D01*
X84644800Y-33359190D01*
X84618601Y-33308130D01*
X84599371Y-33273723D01*
X84585496Y-33253077D01*
X84575360Y-33243296D01*
X84567347Y-33241488D01*
X84560000Y-33244661D01*
X84547975Y-33258147D01*
X84518053Y-33294152D01*
X84471802Y-33350733D01*
X84410787Y-33425946D01*
X84336578Y-33517847D01*
X84250739Y-33624492D01*
X84154839Y-33743937D01*
X84050444Y-33874240D01*
X83939122Y-34013456D01*
X83832389Y-34147166D01*
X83673887Y-34345880D01*
X83533717Y-34521576D01*
X83410728Y-34675682D01*
X83303770Y-34809628D01*
X83211691Y-34924841D01*
X83133342Y-35022753D01*
X83067571Y-35104791D01*
X83013227Y-35172385D01*
X82969160Y-35226963D01*
X82934219Y-35269955D01*
X82907252Y-35302790D01*
X82887110Y-35326897D01*
X82872641Y-35343705D01*
X82862695Y-35354643D01*
X82856120Y-35361140D01*
X82852260Y-35364283D01*
X82834646Y-35365969D01*
X82788820Y-35367493D01*
X82717833Y-35368852D01*
X82624733Y-35370048D01*
X82512571Y-35371076D01*
X82384396Y-35371938D01*
X82243258Y-35372631D01*
X82092207Y-35373154D01*
X81934293Y-35373505D01*
X81772564Y-35373685D01*
X81610071Y-35373690D01*
X81449864Y-35373520D01*
X81294991Y-35373175D01*
X81148504Y-35372651D01*
X81013451Y-35371949D01*
X80892882Y-35371066D01*
X80789846Y-35370003D01*
X80707395Y-35368756D01*
X80648577Y-35367326D01*
X80616441Y-35365711D01*
X80612584Y-35365214D01*
X80599315Y-35362682D01*
X80588376Y-35359525D01*
X80580839Y-35354270D01*
X80577776Y-35345442D01*
X80580257Y-35331568D01*
X80589354Y-35311174D01*
X80606140Y-35282786D01*
X80631685Y-35244930D01*
X80667060Y-35196131D01*
X80713338Y-35134917D01*
X80771590Y-35059813D01*
X80842888Y-34969346D01*
X80928302Y-34862041D01*
X81028905Y-34736424D01*
X81145767Y-34591021D01*
X81279961Y-34424360D01*
X81432559Y-34234965D01*
X81449877Y-34213470D01*
X81568912Y-34065722D01*
X81702552Y-33899830D01*
X81845797Y-33722000D01*
X81993648Y-33538441D01*
X82141106Y-33355357D01*
X82283172Y-33178957D01*
X82414845Y-33015447D01*
X82483626Y-32930030D01*
X82594035Y-32792942D01*
X82706940Y-32652813D01*
X82819214Y-32513519D01*
X82927730Y-32378938D01*
X83029363Y-32252946D01*
X83120986Y-32139418D01*
X83199472Y-32042233D01*
X83261695Y-31965266D01*
X83265210Y-31960922D01*
X83338442Y-31870296D01*
X83409262Y-31782416D01*
X83473994Y-31701864D01*
X83528961Y-31633217D01*
X83570489Y-31581057D01*
X83589619Y-31556772D01*
X83661055Y-31465238D01*
X83624733Y-31377019D01*
X83608574Y-31340020D01*
X83580423Y-31278084D01*
X83541811Y-31194460D01*
X83494269Y-31092396D01*
X83439327Y-30975142D01*
X83378516Y-30845946D01*
X83313367Y-30708056D01*
X83245410Y-30564722D01*
X83176175Y-30419192D01*
X83107193Y-30274716D01*
X83039995Y-30134541D01*
X83009550Y-30071247D01*
X82874844Y-29791540D01*
X81834119Y-29799916D01*
X81656484Y-29801540D01*
X81488044Y-29803459D01*
X81331405Y-29805619D01*
X81189173Y-29807965D01*
X81063954Y-29810443D01*
X80958353Y-29813000D01*
X80874976Y-29815581D01*
X80816428Y-29818133D01*
X80785316Y-29820602D01*
X80780916Y-29821715D01*
X80773042Y-29840502D01*
X80758811Y-29884465D01*
X80739738Y-29948523D01*
X80717341Y-30027598D01*
X80695254Y-30108676D01*
X80656380Y-30253927D01*
X80615093Y-30408116D01*
X80572929Y-30565512D01*
X80531423Y-30720386D01*
X80492112Y-30867006D01*
X80456531Y-30999642D01*
X80426217Y-31112565D01*
X80406160Y-31187199D01*
X80385986Y-31262588D01*
X80360663Y-31357776D01*
X80332961Y-31462318D01*
X80305652Y-31565771D01*
X80296271Y-31601415D01*
X80267991Y-31707827D01*
X80236394Y-31824845D01*
X80204898Y-31939920D01*
X80176919Y-32040505D01*
X80170703Y-32062522D01*
X80143630Y-32160613D01*
X80115062Y-32268417D01*
X80088536Y-32372364D01*
X80068888Y-32453292D01*
X80052050Y-32522513D01*
X80028708Y-32614457D01*
X80000790Y-32721745D01*
X79970222Y-32836995D01*
X79938932Y-32952829D01*
X79928054Y-32992553D01*
X79902235Y-33086906D01*
X79874713Y-33188399D01*
X79844852Y-33299436D01*
X79812017Y-33422422D01*
X79775572Y-33559761D01*
X79734881Y-33713858D01*
X79689310Y-33887116D01*
X79638222Y-34081942D01*
X79580983Y-34300739D01*
X79516956Y-34545912D01*
X79473646Y-34711938D01*
X79437921Y-34848648D01*
X79408809Y-34959298D01*
X79385155Y-35048110D01*
X79365808Y-35119304D01*
X79349613Y-35177102D01*
X79335418Y-35225725D01*
X79322069Y-35269396D01*
X79316725Y-35286369D01*
X79293179Y-35360615D01*
X78317512Y-35360615D01*
X78115094Y-35360802D01*
X77941799Y-35361125D01*
X77795494Y-35361226D01*
X77674044Y-35360746D01*
X77575315Y-35359328D01*
X77497174Y-35356614D01*
X77437487Y-35352245D01*
X77394119Y-35345864D01*
X77364935Y-35337112D01*
X77347804Y-35325633D01*
X77340589Y-35311066D01*
X77341157Y-35293056D01*
X77347375Y-35271242D01*
X77357108Y-35245269D01*
X77368221Y-35214777D01*
X77372327Y-35202046D01*
X77383260Y-35164531D01*
X77401301Y-35100352D01*
X77425489Y-35013047D01*
X77454866Y-34906155D01*
X77488470Y-34783215D01*
X77525342Y-34647764D01*
X77564520Y-34503342D01*
X77605046Y-34353486D01*
X77645960Y-34201735D01*
X77686299Y-34051628D01*
X77725106Y-33906702D01*
X77761419Y-33770497D01*
X77789272Y-33665490D01*
X77818504Y-33555735D01*
X77851112Y-33434543D01*
X77883753Y-33314268D01*
X77913085Y-33207261D01*
X77922536Y-33173121D01*
X77950008Y-33073325D01*
X77979360Y-32965185D01*
X78007250Y-32861092D01*
X78030340Y-32773435D01*
X78032294Y-32765907D01*
X78052847Y-32687712D01*
X78079152Y-32589340D01*
X78108529Y-32480717D01*
X78138301Y-32371770D01*
X78154618Y-32312615D01*
X78182540Y-32211412D01*
X78210860Y-32108077D01*
X78237167Y-32011461D01*
X78259048Y-31930410D01*
X78269671Y-31890584D01*
X78286045Y-31829061D01*
X78308622Y-31744738D01*
X78335421Y-31644987D01*
X78364461Y-31537180D01*
X78393761Y-31428688D01*
X78397776Y-31413846D01*
X78424653Y-31314390D01*
X78449397Y-31222601D01*
X78470613Y-31143674D01*
X78486905Y-31082802D01*
X78496878Y-31045179D01*
X78498556Y-31038707D01*
X78508638Y-31000336D01*
X78525484Y-30937522D01*
X78547854Y-30854794D01*
X78574506Y-30756680D01*
X78604203Y-30647709D01*
X78635702Y-30532411D01*
X78667764Y-30415315D01*
X78699148Y-30300949D01*
X78728616Y-30193842D01*
X78754925Y-30098523D01*
X78776838Y-30019522D01*
X78793112Y-29961366D01*
X78802508Y-29928586D01*
X78802819Y-29927549D01*
X78816532Y-29877300D01*
X78825198Y-29836486D01*
X78826769Y-29822041D01*
X78825014Y-29817192D01*
X78818387Y-29812983D01*
X78804837Y-29809369D01*
X78782318Y-29806306D01*
X78748781Y-29803748D01*
X78702178Y-29801650D01*
X78640462Y-29799968D01*
X78561584Y-29798656D01*
X78463496Y-29797671D01*
X78344150Y-29796966D01*
X78201499Y-29796498D01*
X78033494Y-29796221D01*
X77838087Y-29796090D01*
X77640744Y-29796061D01*
X77415956Y-29795991D01*
X77220447Y-29795756D01*
X77052234Y-29795321D01*
X76909334Y-29794648D01*
X76789766Y-29793701D01*
X76691546Y-29792443D01*
X76612692Y-29790838D01*
X76551221Y-29788848D01*
X76505151Y-29786438D01*
X76472500Y-29783572D01*
X76451284Y-29780211D01*
X76439522Y-29776320D01*
X76436271Y-29773832D01*
X76431787Y-29763935D01*
X76430513Y-29746781D01*
X76433038Y-29719880D01*
X76439953Y-29680738D01*
X76449046Y-29639557D01*
X76603141Y-29639557D01*
X77797016Y-29643563D01*
X78990892Y-29647569D01*
X78995854Y-29699232D01*
X78993549Y-29735854D01*
X78983362Y-29793201D01*
X78967089Y-29862268D01*
X78953783Y-29910247D01*
X78931814Y-29985790D01*
X78904758Y-30080500D01*
X78875732Y-30183382D01*
X78847852Y-30283437D01*
X78842159Y-30304061D01*
X78761710Y-30596507D01*
X78687954Y-30865498D01*
X78621261Y-31109665D01*
X78562007Y-31327639D01*
X78510564Y-31518052D01*
X78473548Y-31656122D01*
X78442128Y-31773284D01*
X78407772Y-31900449D01*
X78373308Y-32027208D01*
X78341566Y-32143151D01*
X78318499Y-32226646D01*
X78291953Y-32322572D01*
X78258678Y-32443519D01*
X78220080Y-32584323D01*
X78177567Y-32739820D01*
X78132546Y-32904846D01*
X78086423Y-33074238D01*
X78040607Y-33242832D01*
X77996504Y-33405464D01*
X77955521Y-33556971D01*
X77919065Y-33692189D01*
X77913853Y-33711569D01*
X77843871Y-33972233D01*
X77781839Y-34204004D01*
X77727435Y-34408133D01*
X77680337Y-34585872D01*
X77640221Y-34738474D01*
X77606765Y-34867191D01*
X77579645Y-34973277D01*
X77558540Y-35057982D01*
X77543126Y-35122560D01*
X77533079Y-35168263D01*
X77528078Y-35196344D01*
X77527800Y-35208054D01*
X77528001Y-35208354D01*
X77545309Y-35210544D01*
X77590947Y-35212452D01*
X77661985Y-35214052D01*
X77755492Y-35215317D01*
X77868539Y-35216218D01*
X77998194Y-35216728D01*
X78141527Y-35216821D01*
X78295608Y-35216468D01*
X78365001Y-35216170D01*
X79190929Y-35212122D01*
X79213610Y-35118338D01*
X79222830Y-35082285D01*
X79239313Y-35020037D01*
X79261992Y-34935529D01*
X79289804Y-34832698D01*
X79321683Y-34715481D01*
X79356563Y-34587813D01*
X79393380Y-34453632D01*
X79399002Y-34433194D01*
X79474750Y-34155721D01*
X79556341Y-33852813D01*
X79642454Y-33529465D01*
X79731773Y-33190674D01*
X79822979Y-32841434D01*
X79914755Y-32486742D01*
X79991493Y-32187569D01*
X80057057Y-31931759D01*
X80120071Y-31687766D01*
X80182944Y-31446362D01*
X80248085Y-31198321D01*
X80317902Y-30934417D01*
X80358732Y-30780799D01*
X80392712Y-30652916D01*
X80430747Y-30509413D01*
X80469800Y-30361771D01*
X80506835Y-30221466D01*
X80538584Y-30100861D01*
X80564885Y-30001731D01*
X80589505Y-29910742D01*
X80611025Y-29832997D01*
X80628027Y-29773598D01*
X80639092Y-29737646D01*
X80641229Y-29731720D01*
X80647654Y-29715706D01*
X80654626Y-29701861D01*
X80664320Y-29690039D01*
X80678914Y-29680089D01*
X80700584Y-29671863D01*
X80731506Y-29665213D01*
X80773858Y-29659989D01*
X80829817Y-29656043D01*
X80901558Y-29653226D01*
X80991258Y-29651389D01*
X81101094Y-29650385D01*
X81233243Y-29650063D01*
X81389881Y-29650276D01*
X81573185Y-29650874D01*
X81785332Y-29651709D01*
X81810823Y-29651810D01*
X82041904Y-29652899D01*
X82243037Y-29654233D01*
X82415535Y-29655839D01*
X82560710Y-29657743D01*
X82679875Y-29659970D01*
X82774343Y-29662549D01*
X82845427Y-29665505D01*
X82894439Y-29668865D01*
X82922693Y-29672656D01*
X82928561Y-29674332D01*
X82942974Y-29682511D01*
X82958560Y-29697487D01*
X82976997Y-29722212D01*
X82999962Y-29759638D01*
X83029131Y-29812717D01*
X83066181Y-29884402D01*
X83112791Y-29977646D01*
X83170635Y-30095401D01*
X83188397Y-30131780D01*
X83243385Y-30244663D01*
X83295739Y-30352440D01*
X83343389Y-30450822D01*
X83384260Y-30535519D01*
X83416280Y-30602240D01*
X83437376Y-30646695D01*
X83441857Y-30656335D01*
X83522815Y-30831892D01*
X83594823Y-30986713D01*
X83656982Y-31118886D01*
X83708392Y-31226498D01*
X83748153Y-31307636D01*
X83751658Y-31314626D01*
X83785206Y-31386006D01*
X83803041Y-31436716D01*
X83806866Y-31472047D01*
X83805327Y-31481303D01*
X83792781Y-31504969D01*
X83763367Y-31548554D01*
X83720148Y-31607890D01*
X83666186Y-31678812D01*
X83604545Y-31757153D01*
X83581400Y-31785953D01*
X83525029Y-31855773D01*
X83452417Y-31945811D01*
X83366907Y-32051917D01*
X83271841Y-32169942D01*
X83170562Y-32295735D01*
X83066412Y-32425146D01*
X82962732Y-32554026D01*
X82913397Y-32615374D01*
X82806382Y-32748436D01*
X82693242Y-32889069D01*
X82578055Y-33032204D01*
X82464901Y-33172777D01*
X82357858Y-33305719D01*
X82261003Y-33425965D01*
X82178417Y-33528447D01*
X82156799Y-33555261D01*
X82003984Y-33744924D01*
X81855383Y-33929640D01*
X81712230Y-34107858D01*
X81575759Y-34278031D01*
X81447205Y-34438609D01*
X81327801Y-34588045D01*
X81218780Y-34724789D01*
X81121378Y-34847293D01*
X81036828Y-34954008D01*
X80966363Y-35043385D01*
X80911218Y-35113876D01*
X80872626Y-35163932D01*
X80851822Y-35192004D01*
X80848464Y-35197342D01*
X80847570Y-35202751D01*
X80850726Y-35207452D01*
X80860029Y-35211514D01*
X80877575Y-35215004D01*
X80905462Y-35217989D01*
X80945786Y-35220537D01*
X81000643Y-35222716D01*
X81072131Y-35224593D01*
X81162347Y-35226237D01*
X81273387Y-35227714D01*
X81407348Y-35229092D01*
X81566326Y-35230440D01*
X81752420Y-35231824D01*
X81962557Y-35233277D01*
X82777176Y-35238800D01*
X82924682Y-35061338D01*
X82959311Y-35019247D01*
X83011491Y-34955225D01*
X83079229Y-34871742D01*
X83160534Y-34771267D01*
X83253412Y-34656269D01*
X83355869Y-34529216D01*
X83465914Y-34392578D01*
X83581553Y-34248822D01*
X83700794Y-34100419D01*
X83780808Y-34000738D01*
X83898294Y-33854467D01*
X84011239Y-33714139D01*
X84117941Y-33581849D01*
X84216698Y-33459694D01*
X84305810Y-33349770D01*
X84383575Y-33254173D01*
X84448291Y-33175000D01*
X84498257Y-33114346D01*
X84531772Y-33074308D01*
X84545688Y-33058430D01*
X84579147Y-33024784D01*
X84599189Y-33011519D01*
X84613180Y-33015665D01*
X84623190Y-33027169D01*
X84636178Y-33049101D01*
X84660808Y-33095149D01*
X84695076Y-33161302D01*
X84736980Y-33243550D01*
X84784517Y-33337882D01*
X84835682Y-33440286D01*
X84888474Y-33546754D01*
X84940887Y-33653273D01*
X84990920Y-33755835D01*
X85036568Y-33850427D01*
X85075829Y-33933039D01*
X85078260Y-33938215D01*
X85141589Y-34072692D01*
X85209194Y-34215468D01*
X85278843Y-34361886D01*
X85348304Y-34507291D01*
X85415344Y-34647027D01*
X85477729Y-34776440D01*
X85533227Y-34890873D01*
X85579606Y-34985672D01*
X85610549Y-35048052D01*
X85704548Y-35235569D01*
X86649167Y-35235569D01*
X86818088Y-35235358D01*
X86977595Y-35234752D01*
X87124964Y-35233788D01*
X87257472Y-35232502D01*
X87372397Y-35230932D01*
X87467017Y-35229116D01*
X87538608Y-35227091D01*
X87584448Y-35224894D01*
X87601814Y-35222563D01*
X87601858Y-35222506D01*
X87597847Y-35204467D01*
X87581069Y-35160690D01*
X87552570Y-35093481D01*
X87513394Y-35005147D01*
X87464587Y-34897996D01*
X87407193Y-34774334D01*
X87342258Y-34636468D01*
X87270825Y-34486705D01*
X87232543Y-34407138D01*
X87204376Y-34348761D01*
X87164550Y-34266224D01*
X87114993Y-34163522D01*
X87057633Y-34044648D01*
X86994397Y-33913598D01*
X86927212Y-33774366D01*
X86858006Y-33630946D01*
X86806399Y-33523999D01*
X86738544Y-33383328D01*
X86672630Y-33246580D01*
X86610362Y-33117297D01*
X86553442Y-32999021D01*
X86503575Y-32895295D01*
X86462464Y-32809659D01*
X86431814Y-32745656D01*
X86415397Y-32711199D01*
X86387346Y-32652406D01*
X86349022Y-32572639D01*
X86303861Y-32479021D01*
X86255298Y-32378675D01*
X86206771Y-32278723D01*
X86204249Y-32273538D01*
X86114549Y-32088767D01*
X86038665Y-31931621D01*
X85976438Y-31801765D01*
X85927708Y-31698859D01*
X85892316Y-31622566D01*
X85870102Y-31572549D01*
X85860907Y-31548470D01*
X85860615Y-31546658D01*
X85862780Y-31540928D01*
X85870128Y-31529246D01*
X85883933Y-31510017D01*
X85905469Y-31481645D01*
X85936014Y-31442535D01*
X85976842Y-31391093D01*
X86029228Y-31325723D01*
X86094448Y-31244831D01*
X86173776Y-31146822D01*
X86268490Y-31030100D01*
X86379862Y-30893072D01*
X86509170Y-30734140D01*
X86572978Y-30655753D01*
X86672605Y-30533186D01*
X86786519Y-30392718D01*
X86909465Y-30240850D01*
X87036187Y-30084082D01*
X87161432Y-29928913D01*
X87279943Y-29781845D01*
X87369085Y-29671015D01*
X87465066Y-29551597D01*
X87560923Y-29432408D01*
X87653573Y-29317275D01*
X87739933Y-29210030D01*
X87816918Y-29114500D01*
X87881444Y-29034517D01*
X87930427Y-28973909D01*
X87941842Y-28959815D01*
X88021564Y-28861095D01*
X88103041Y-28759537D01*
X88183559Y-28658586D01*
X88260402Y-28561685D01*
X88330854Y-28472281D01*
X88392200Y-28393816D01*
X88441725Y-28329736D01*
X88476713Y-28283485D01*
X88493351Y-28260223D01*
X88521133Y-28217824D01*
X87548880Y-28213681D01*
X87377347Y-28213073D01*
X87215114Y-28212737D01*
X87064875Y-28212662D01*
X86929324Y-28212839D01*
X86811155Y-28213257D01*
X86713062Y-28213906D01*
X86637738Y-28214777D01*
X86587878Y-28215858D01*
X86566175Y-28217141D01*
X86565511Y-28217353D01*
X86551918Y-28232439D01*
X86524162Y-28266858D01*
X86486783Y-28314898D01*
X86458617Y-28351861D01*
X86433302Y-28384674D01*
X86391771Y-28437690D01*
X86336077Y-28508335D01*
X86268276Y-28594031D01*
X86190423Y-28692202D01*
X86104572Y-28800274D01*
X86012779Y-28915671D01*
X85917098Y-29035816D01*
X85819584Y-29158133D01*
X85722292Y-29280048D01*
X85627277Y-29398983D01*
X85536594Y-29512364D01*
X85452298Y-29617614D01*
X85376444Y-29712157D01*
X85311086Y-29793419D01*
X85258280Y-29858822D01*
X85220080Y-29905792D01*
X85198542Y-29931751D01*
X85195322Y-29935395D01*
X85171816Y-29948931D01*
X85153290Y-29939954D01*
X85140057Y-29920901D01*
X85115839Y-29878338D01*
X85083134Y-29816958D01*
X85044440Y-29741455D01*
X85002255Y-29656522D01*
X85000106Y-29652127D01*
X84963151Y-29576719D01*
X84914712Y-29478240D01*
X84857222Y-29361613D01*
X84793110Y-29231763D01*
X84724808Y-29093612D01*
X84654748Y-28952083D01*
X84585360Y-28812102D01*
X84574065Y-28789335D01*
X84280068Y-28196825D01*
X83229818Y-28208382D01*
X83088858Y-28209795D01*
X82919433Y-28211253D01*
X82724338Y-28212744D01*
X82506371Y-28214251D01*
X82268327Y-28215760D01*
X82013002Y-28217257D01*
X81743193Y-28218725D01*
X81461696Y-28220152D01*
X81171307Y-28221521D01*
X80874823Y-28222818D01*
X80575039Y-28224028D01*
X80274752Y-28225137D01*
X79976757Y-28226129D01*
X79748984Y-28226809D01*
X79475356Y-28227622D01*
X79210000Y-28228487D01*
X78954621Y-28229394D01*
X78710927Y-28230336D01*
X78480624Y-28231302D01*
X78265421Y-28232284D01*
X78067024Y-28233273D01*
X77887139Y-28234259D01*
X77727475Y-28235233D01*
X77589738Y-28236186D01*
X77475635Y-28237109D01*
X77386873Y-28237994D01*
X77325160Y-28238830D01*
X77292202Y-28239609D01*
X77287138Y-28239951D01*
X77257621Y-28242959D01*
X77206291Y-28245496D01*
X77142597Y-28247140D01*
X77120053Y-28247419D01*
X76984230Y-28248615D01*
X76945804Y-28377569D01*
X76924151Y-28451339D01*
X76897722Y-28543159D01*
X76867634Y-28648980D01*
X76835008Y-28764755D01*
X76800961Y-28886434D01*
X76766614Y-29009970D01*
X76733084Y-29131314D01*
X76701492Y-29246419D01*
X76672955Y-29351236D01*
X76648594Y-29441717D01*
X76629526Y-29513813D01*
X76616871Y-29563476D01*
X76611912Y-29585509D01*
X76603141Y-29639557D01*
X76449046Y-29639557D01*
X76451848Y-29626865D01*
X76469311Y-29555767D01*
X76492933Y-29464954D01*
X76523304Y-29351933D01*
X76561014Y-29214212D01*
X76606652Y-29049299D01*
X76614141Y-29022338D01*
X76645999Y-28906972D01*
X76680188Y-28781926D01*
X76713884Y-28657616D01*
X76744259Y-28544461D01*
X76764669Y-28467446D01*
X76794931Y-28355061D01*
X76820294Y-28268913D01*
X76842667Y-28204726D01*
X76863957Y-28158227D01*
X76886074Y-28125139D01*
X76910926Y-28101189D01*
X76935446Y-28084927D01*
X76942153Y-28081205D01*
X76949756Y-28077787D01*
X76959551Y-28074659D01*
X76972835Y-28071808D01*
X76990905Y-28069221D01*
X77015059Y-28066886D01*
X77046593Y-28064789D01*
X77086805Y-28062917D01*
X77136990Y-28061257D01*
X77198447Y-28059796D01*
X77272473Y-28058522D01*
X77360364Y-28057421D01*
X77463417Y-28056480D01*
X77582930Y-28055686D01*
X77720199Y-28055027D01*
X77876522Y-28054489D01*
X78053195Y-28054059D01*
X78251516Y-28053725D01*
X78472781Y-28053472D01*
X78718288Y-28053289D01*
X78989334Y-28053162D01*
X79287215Y-28053079D01*
X79613229Y-28053025D01*
X79968672Y-28052989D01*
X80124122Y-28052977D01*
X80443755Y-28052992D01*
G37*
%TO.C,R9*%
D12*
X50860436Y-55265000D02*
X51314564Y-55265000D01*
X50860436Y-56735000D02*
X51314564Y-56735000D01*
%TO.C,Q17*%
X19912500Y-55620000D02*
X20152500Y-55950000D01*
X19672500Y-55950000D01*
X19912500Y-55620000D01*
G36*
X20152500Y-55950000D02*
G01*
X19672500Y-55950000D01*
X19912500Y-55620000D01*
X20152500Y-55950000D01*
G37*
X22272500Y-57560000D02*
X20452500Y-57560000D01*
X22272500Y-56560000D02*
X22272500Y-57560000D01*
X22272500Y-54440000D02*
X22272500Y-55440000D01*
X20452500Y-57560000D02*
X20452500Y-57510000D01*
X20452500Y-56390000D02*
X20452500Y-55610000D01*
X20452500Y-54490000D02*
X20452500Y-54440000D01*
X20452500Y-54440000D02*
X22272500Y-54440000D01*
%TO.C,Q25*%
X88952500Y-38440000D02*
X90772500Y-38440000D01*
X88952500Y-38490000D02*
X88952500Y-38440000D01*
X88952500Y-40390000D02*
X88952500Y-39610000D01*
X88952500Y-41560000D02*
X88952500Y-41510000D01*
X90772500Y-38440000D02*
X90772500Y-39440000D01*
X90772500Y-40560000D02*
X90772500Y-41560000D01*
X90772500Y-41560000D02*
X88952500Y-41560000D01*
X88412500Y-39620000D02*
X88652500Y-39950000D01*
X88172500Y-39950000D01*
X88412500Y-39620000D01*
G36*
X88652500Y-39950000D02*
G01*
X88172500Y-39950000D01*
X88412500Y-39620000D01*
X88652500Y-39950000D01*
G37*
%TO.C,R10*%
X81360436Y-43265000D02*
X81814564Y-43265000D01*
X81360436Y-44735000D02*
X81814564Y-44735000D01*
%TO.C,Q26*%
X83952500Y-55440000D02*
X85772500Y-55440000D01*
X83952500Y-55490000D02*
X83952500Y-55440000D01*
X83952500Y-57390000D02*
X83952500Y-56610000D01*
X83952500Y-58560000D02*
X83952500Y-58510000D01*
X85772500Y-55440000D02*
X85772500Y-56440000D01*
X85772500Y-57560000D02*
X85772500Y-58560000D01*
X85772500Y-58560000D02*
X83952500Y-58560000D01*
X83412500Y-56620000D02*
X83652500Y-56950000D01*
X83172500Y-56950000D01*
X83412500Y-56620000D01*
G36*
X83652500Y-56950000D02*
G01*
X83172500Y-56950000D01*
X83412500Y-56620000D01*
X83652500Y-56950000D01*
G37*
%TO.C,Q24*%
X76912500Y-56620000D02*
X77152500Y-56950000D01*
X76672500Y-56950000D01*
X76912500Y-56620000D01*
G36*
X77152500Y-56950000D02*
G01*
X76672500Y-56950000D01*
X76912500Y-56620000D01*
X77152500Y-56950000D01*
G37*
X79272500Y-58560000D02*
X77452500Y-58560000D01*
X79272500Y-57560000D02*
X79272500Y-58560000D01*
X79272500Y-55440000D02*
X79272500Y-56440000D01*
X77452500Y-58560000D02*
X77452500Y-58510000D01*
X77452500Y-57390000D02*
X77452500Y-56610000D01*
X77452500Y-55490000D02*
X77452500Y-55440000D01*
X77452500Y-55440000D02*
X79272500Y-55440000D01*
%TO.C,R47*%
X71860436Y-52235000D02*
X72314564Y-52235000D01*
X71860436Y-50765000D02*
X72314564Y-50765000D01*
%TO.C,R48*%
X71860436Y-64735000D02*
X72314564Y-64735000D01*
X71860436Y-63265000D02*
X72314564Y-63265000D01*
%TO.C,R49*%
X89860436Y-50265000D02*
X90314564Y-50265000D01*
X89860436Y-51735000D02*
X90314564Y-51735000D01*
%TO.C,R50*%
X90360436Y-64235000D02*
X90814564Y-64235000D01*
X90360436Y-62765000D02*
X90814564Y-62765000D01*
%TO.C,R8*%
X39272936Y-45235000D02*
X39727064Y-45235000D01*
X39272936Y-43765000D02*
X39727064Y-43765000D01*
%TO.C,Q19*%
X31090000Y-42440000D02*
X32910000Y-42440000D01*
X31090000Y-42490000D02*
X31090000Y-42440000D01*
X31090000Y-44390000D02*
X31090000Y-43610000D01*
X31090000Y-45560000D02*
X31090000Y-45510000D01*
X32910000Y-42440000D02*
X32910000Y-43440000D01*
X32910000Y-44560000D02*
X32910000Y-45560000D01*
X32910000Y-45560000D02*
X31090000Y-45560000D01*
X30550000Y-43620000D02*
X30790000Y-43950000D01*
X30310000Y-43950000D01*
X30550000Y-43620000D01*
G36*
X30790000Y-43950000D02*
G01*
X30310000Y-43950000D01*
X30550000Y-43620000D01*
X30790000Y-43950000D01*
G37*
%TO.C,Q20*%
X46687500Y-43670000D02*
X46927500Y-44000000D01*
X46447500Y-44000000D01*
X46687500Y-43670000D01*
G36*
X46927500Y-44000000D02*
G01*
X46447500Y-44000000D01*
X46687500Y-43670000D01*
X46927500Y-44000000D01*
G37*
X49047500Y-45610000D02*
X47227500Y-45610000D01*
X49047500Y-44610000D02*
X49047500Y-45610000D01*
X49047500Y-42490000D02*
X49047500Y-43490000D01*
X47227500Y-45610000D02*
X47227500Y-45560000D01*
X47227500Y-44440000D02*
X47227500Y-43660000D01*
X47227500Y-42540000D02*
X47227500Y-42490000D01*
X47227500Y-42490000D02*
X49047500Y-42490000D01*
%TO.C,Q18*%
X31912500Y-55620000D02*
X32152500Y-55950000D01*
X31672500Y-55950000D01*
X31912500Y-55620000D01*
G36*
X32152500Y-55950000D02*
G01*
X31672500Y-55950000D01*
X31912500Y-55620000D01*
X32152500Y-55950000D01*
G37*
X34272500Y-57560000D02*
X32452500Y-57560000D01*
X34272500Y-56560000D02*
X34272500Y-57560000D01*
X34272500Y-54440000D02*
X34272500Y-55440000D01*
X32452500Y-57560000D02*
X32452500Y-57510000D01*
X32452500Y-56390000D02*
X32452500Y-55610000D01*
X32452500Y-54490000D02*
X32452500Y-54440000D01*
X32452500Y-54440000D02*
X34272500Y-54440000D01*
%TO.C,Q22*%
X58050000Y-55620000D02*
X58290000Y-55950000D01*
X57810000Y-55950000D01*
X58050000Y-55620000D01*
G36*
X58290000Y-55950000D02*
G01*
X57810000Y-55950000D01*
X58050000Y-55620000D01*
X58290000Y-55950000D01*
G37*
X60410000Y-57560000D02*
X58590000Y-57560000D01*
X60410000Y-56560000D02*
X60410000Y-57560000D01*
X60410000Y-54440000D02*
X60410000Y-55440000D01*
X58590000Y-57560000D02*
X58590000Y-57510000D01*
X58590000Y-56390000D02*
X58590000Y-55610000D01*
X58590000Y-54490000D02*
X58590000Y-54440000D01*
X58590000Y-54440000D02*
X60410000Y-54440000D01*
%TO.C,Q21*%
X41412500Y-55620000D02*
X41652500Y-55950000D01*
X41172500Y-55950000D01*
X41412500Y-55620000D01*
G36*
X41652500Y-55950000D02*
G01*
X41172500Y-55950000D01*
X41412500Y-55620000D01*
X41652500Y-55950000D01*
G37*
X43772500Y-57560000D02*
X41952500Y-57560000D01*
X43772500Y-56560000D02*
X43772500Y-57560000D01*
X43772500Y-54440000D02*
X43772500Y-55440000D01*
X41952500Y-57560000D02*
X41952500Y-57510000D01*
X41952500Y-56390000D02*
X41952500Y-55610000D01*
X41952500Y-54490000D02*
X41952500Y-54440000D01*
X41952500Y-54440000D02*
X43772500Y-54440000D01*
%TO.C,Q23*%
X73450000Y-40380000D02*
X73210000Y-40050000D01*
X73690000Y-40050000D01*
X73450000Y-40380000D01*
G36*
X73450000Y-40380000D02*
G01*
X73210000Y-40050000D01*
X73690000Y-40050000D01*
X73450000Y-40380000D01*
G37*
X71090000Y-38440000D02*
X72910000Y-38440000D01*
X71090000Y-39440000D02*
X71090000Y-38440000D01*
X71090000Y-41560000D02*
X71090000Y-40560000D01*
X72910000Y-38440000D02*
X72910000Y-38490000D01*
X72910000Y-39610000D02*
X72910000Y-40390000D01*
X72910000Y-41510000D02*
X72910000Y-41560000D01*
X72910000Y-41560000D02*
X71090000Y-41560000D01*
%TO.C,R7*%
X27735000Y-56272936D02*
X27735000Y-56727064D01*
X26265000Y-56272936D02*
X26265000Y-56727064D01*
%TO.C,J1*%
X64770000Y-34380000D02*
X51960000Y-34380000D01*
X51960000Y-31620000D02*
X51960000Y-34380000D01*
X64770000Y-31620000D02*
X64770000Y-34380000D01*
X64770000Y-31620000D02*
X51960000Y-31620000D01*
X66040000Y-31620000D02*
X67420000Y-31620000D01*
X67420000Y-31620000D02*
X67420000Y-33000000D01*
%TD*%
M02*
